/* XPM */
static char *_9f71617770e42e893871b0a6452cebaFmeFCeScmoVE2si2[] = {
/* columns rows colors chars-per-pixel */
"128 128 57 1 ",
"  c #33373A",
". c #363A3B",
"X c #35393C",
"o c #373B3C",
"O c #373B3E",
"+ c #383C3D",
"@ c #393D3E",
"# c #383C3F",
"$ c #3A3E3F",
"% c #393D40",
"& c #3B3F40",
"* c #3A3E41",
"= c #3B3F42",
"- c #3C4041",
"; c #3D4142",
": c #3C4043",
"> c #3E4243",
", c #3D4144",
"< c #3F4344",
"1 c #3E4245",
"2 c #3F4346",
"3 c #404445",
"4 c #414546",
"5 c #404447",
"6 c #424647",
"7 c #414548",
"8 c #434748",
"9 c #424649",
"0 c #43474A",
"q c #444849",
"w c #45494A",
"e c #44484B",
"r c #464A4B",
"t c #45494C",
"y c #474B4C",
"u c #464A4D",
"i c #474B4E",
"p c #484C4D",
"a c #494D4E",
"s c #484C4F",
"d c #4A4E4F",
"f c #494D50",
"g c #4B4F50",
"h c #4A4E51",
"j c #4B4F52",
"k c #4C5051",
"l c #4D5152",
"z c #4C5053",
"x c #4E5253",
"c c #4D5154",
"v c #4F5354",
"b c #4E5255",
"n c #4F5356",
"m c #515556",
"M c #505457",
"N c #515558",
"B c #525659",
/* pixels */
"3<3<33qyq8<3qy3;3q8qp;&kq3<8pkq32222tstt=22tt2222ttt2222tss22st2vy8yggy<o<883<ygtst22ssttttt22ttstt222tstt22ths2gggt<&&<8&&3y888",
"33333qqyppyppyyqpgyyp8<pq38qpkq8t2ttsstt2ttttttttssssttstssttsstssgyyyyq8ygpy8ygttt22tstttttttssstt2ttssssttfchtyt88888yg8<8y888",
"33338qqyqpppqqqpykq8kgqqqqpyppyqttttshsstttsststtshhsststssttttt<8yt<&<8yypyyygptttttsstttsstshhssttttsstttttsst88888yyygy888<<8",
"<<<33qqqqqpyqyqq;yq;qppq8qppqqqqttttshssttttstss2sshst2t2tt22t22<888&&<88<38ygyy2ttsthssttstsshhstttttts22t222t283=<88<<yy8<&&<3",
";<3333qqpyqqgkpq.qq;3qqy3ypy333qtt2tssstt2t2tttt2tsss2t2tt2tt2t28yy8838y8<&<8y882ttttstt2ttt2tsstttt2tttttst2tttq8<<88<&88<&&&<8",
";<33qq88pq38ppy3;gg8q3<yqqqq33<8t2tttsttttt2tttsstssttttstsssttsy8<88yy8y88888<&=2222tt22ttt2ttsttt2tttttssttsst8888q888883<<888",
"<33qqqqq3338qq83qpyqp3;yyqqq33332t2ttsttssttttsftssttttshstssttsy8<<38q8yyy8q88<=tt22tt2ttttt2tttttttttttst2tst288yyyy88888<8yy<",
"33qypppp8qppqyypq8;3p8;pppyqqq33t2ttssttsssssshhstt222ttsttssttsyy8888yp88qqqqq8tsttttstttt22tttttstttttssttshs2<8yy8<88yy3<8gq&",
"38qyq8qpkkppqpppp8qkkpqgky3qpppqsstshhstthhshNctsttssfst2tsssssb88yyggyygpy88qyysssttt22tsssssfsht2ttstsstthsttsyyyy8pv8yyqyyy88",
"3qqqq8qppppyyypypq8qyqqpy333qpqqt2=2sftttss22sstssttssststshstsh<<388qqyggpyyyyystttt2ttttssssststttt===t2=ts22288yy<yg<ggyggyy8",
"8qyyq8qqpppppyyyyppqqyppq338yppqtt22ssstttt%=tt2stttttttstttsttt88888ypgqyyypyypsst22ttstttstttttssht=%=h2=tsst2y8ggyyg3ypggyyqy",
"qqqqqqq8qqypppqq3pp38gvgyqqypgpysttttsstsst=2sttttttttttt222st2tyyyqyyyy38qyyyyyttttttssttttsststsshs2tsht2tsssty8yg8ygq8ypy888q",
"qqqqqqq8qqypyqqq+8y33pkqppppppyqttt2t222sssttstt2tttttsst22ttttt8yyqy8<<<8qypyyq2ttstsst2ttsssfhhsttfsshtttt2tss8<88&<q88ypy8888",
"q88qyyq3qqqqyyyq+3yqqqyqyppppq83ttttttt2tttssst22ttsttsst22tssshyyypy8<&88yygpyy22tssst22tttsshhct2tssst2sstttfhy<88&&yyyygyy888",
"8838qpq8qqqqqqpqqqppq38pqypppqq3tthhfsts2tttstt2tsfstttstttssttfpygppyy888yyyyyytttsstttttttsttsst2stt2ttsssschsg8pg<<pgyyyyyyq8",
"833qppyqqq383qyygqqy3o&qqygkpppp=2tffssst22tsstsfhhhtttt222t222sy888888q8888yyq8ttttttttttstt2t2ttshs22s2t22thh2y3yk8<ypyy88yy8<",
"88yyyq8yvgy88yyypsyyttttfstttsttttttsst2ssshhhhhsttsfsscs2tshshb<<<ypy8yggyyyyygyyttt2ttssssstttshsthhtt2thstttsyyttsffssstssst2",
"<88888qyyyyyyyygysstttttst2ttss2ttttshstsssssshssttshtshstthhssf8<8yyyyyygyyyyyytsttttttssststssshttfs2sbchstt2=sytsfsstsstsstt2",
"38y8888y8yyypgyysytt2ttsst=2tttt222tshssttsstttttttsssttstsfst2ty88yy8qyyyyyyyq8ttttt22tststttsshh2=tttshsttsst2stsssstttssstttt",
"yypyyy8y88yyyyyyssttttssss2222ttttttststtttttttt2tssstttttsfstt2y88888qp88yyy888ttt8ttt2stt2ttsfhht2tttstt2tshhhtt2ttststtsst2tt",
"8yyyyqyyy8888888ssstssshhstt22t2ttttttts2ttttsst2tsssst22tssstt2g8<88<8y8yyyyy88tttttttttttttssshhtthstttsstt2tst222tsfhttst22ts",
"&&<88yygyy888888sstsssssssttttt222tt2tss2tttssss2tttssst2ssttst2y888888yqyyq88882tttttttttttttsssftthstttshst2tstt2=2ssstttttttt",
"&<<888yy8yyyqqy8ttsssststttttt2ttttt2tsst2ttttts2tttthhstssttsstg88yyqypyyyqqyqytttttssstttsstt2tstths2t2tssssss222ttttttt2ttttt",
"<88y888888ygggy8=2tsttt2==2ttt2tssst222tttttttt22tt2thcstssttts2pyyygyygpyyy88yytstsssssttssst22tst2ss2tsttssst2tttsst2=tt22tttt",
"<8yyyy8yyyq888yytshft===sttttsttt222t=2s2ttttttsst2t2tssttshhfstypgggyyyy83ygq88ttstttt2tsshssttffsttttttttsstsst2tttfh=t2ttttt2",
"<3yq88yygyyyyyyy2ttsttttssssfsstttttttthtttttsttssttttsst2222t2tyyy8883<g83ypyyyttttttttsssst2ttsstttttshfststt2sttt2hbtssttssst",
"388<388yyypyyyy8st222ssstsshstttt2ttt2tstttttsttsttttsshstt222tsgyy888yygy8yyqygstt2ttsstsst2tttssttttttchssst2=stsstfbsftttshst",
"888888qy8yyyyq88hst22ttt=tsstt2t2t22222ttttsttsssstttsshsst2ttshyyyyyygggyyyyyq8sttt2tsststttttfhhst22t2tsssttttttfcssh2sssstttt",
"88yyyy88qyyyy888ftt2tt2==2ttt22ttsssttttttsttssttttttttstttt2ttt<888yyy888yyyyy82ttttsstttsttthhssttttss2tffttsht2ts2tt2tshsttts",
"88qpgy88ypyyyyy8tttsstt2ttttt2tt2sssttttttsttssstt2tttts22ttst2288qy88<<+<yyygyy2ttttstttttttshhttttsshh2thst2shh222%=tsthbht2ts",
"q88qyy88yyyyyyyytssssssssstttttt2ttt2tt2sttstsssttttttsstsshfsttggyyyq88&8pyypgyt2ttttss2tssstsstttttsfhttttsssthttt==shsssstttt",
"y83<8888yyt888ttthhssshhst22tssttshttss2tttssssssttssssstsssssssggyyyypgqgky8yyyttt2ttsstssstt2tfsttt2tttt=thchss2hbs2ttht22sst=",
"888888qy88<&&<8ysshhs22tsst2tsssssssssttttt22ssst22thht2t2ttshfsttttt2tt2sft2=22st2ttttst222tttttt2t2ttsst2tsst=s2yMk;o<yq3<<383",
"<<<<888yq8<<<8qysttsssssstttssss22tssshstts2tsstsssfssttttttstt22ttttt22tfhtttttst2tt22stt222t2tttt2ttttttttfhstgtqgp<;8y8<<8yq8",
"3<<3<8888q8888yys2=tsshhttssfhsttttttttt2ttttsstshsss2tsstttttttttttttttssssttt2t22tt22tttt2tt22tttt2t2tt2ttssstgyq88qqqy8<<qyy8",
"3333<88888888q88ht22tttssstsssstttsttt2ttttstst222ttttssttttsshhtttttssssfsttst22t2tttt2tt22tttt2tt2tt2222ttttts8q8&<ygqgyq88383",
"83<388yy83888888sttt222tsst2tttt=tttttshttttstt222=2shstsstttsshstttsssststttst2tttttttttt22tsstttttt22222t2222t&88;<pgqqypy333q",
"888888qy<3888888tttt2=2sst222ttt2tstttshtttsttttst2tshsttttt222tt222ttt22tt22tt22tt22tt2t2tttssstt2ttttttt2ttt22&3q3<ypq<8yq83yp",
"<838888q888888yysttss22sstttttttssst2=ttst2ss22sstttssttttttt222st2tsst2=tst2ttttssttssttt2tssssttttttsstt22tttt3ygy3<8y<<<3qyy8",
"<3<<8888yyq8q8yyhttssst2sstssstt=ttt22thsttst2ts=ttttt222tsst2tthstshhst%2tt2ttttss22ssssstttsttstt2tsshst22ssssgkvp3&<py<&<ygq&",
"&<<<3yyyyyypyqy8ttttfhhh2sst2ttt2tt2=tt2=shs2tt2t2sbht2ttssttssttthst22ssttsfsttst22ttttssst22sbcst2ttssshfttshspyq8qyyyyppq83qy",
"<88<<888qyyyyyyytt2tshsstfhstssstss22tsttshssffsstfbhttstst22ttt2ttt2=2ttttshststtttttttstttttshstt2tstttss22ts2q838q883qq8<;;<8",
"<88<38q8qyyyyyyqt22tststttstt2tttttttsssst2ssttstsssttttttt2ttst222222ttt==ttttt=ttssst2st2tshhsttttssstttt22tt2333388<<83<<;&;<",
"&<<<8yy88q8yqyy8ttttsssttts2t222ttttsssss=%2t2=t2ss22tt2ttttttttst22tttt2==2222222tssst22tttttstttsssssttttt2ttt388qyy8<888<<333",
"&<<88ypq8838qy8<ttsttttssststtt2t22tsssth2=ttttsthht2sststsssstsst22tsstfttts2t2222tt2t22tsst22ttttt222tsttstttt88qpppq3q8888q88",
"<8q88yy88888y88<ttttttttsttttt2tt22tsstthttsssshtshtttststsfsstsst22ttttht2ttt2tttt22ttt2ths2=22ssst222ttttttt2t88qypyq3q8888q88",
"<qyyyyy8py88yy8;tssst2tts22tst2tsttshsttssstthhhtttst22sstthfstsstttttttft22t22tttttttt2ttstt2tttshss2tttttsst2t88qyppq3yq88yyq8",
"<3yyyggyvy8yyy8<shhfstssht2shstsht2shsttthbstbbbhtsbhtthttthsttssshfsssthtttsssssssstt2tsttttsst=tsstt22sttsft2syqyyppyqyyqyggpq",
"888y8y88ygggggyysyt2tsttttshhhssst=2shhhss22tss2sstttsttttssstshtygyyyy8yygggggpstt2tttssttttsss2ths2=22s2%=ss2%y8tstss2bhsshhst",
"888yy8yqyyypyyq8822ttsfs2ttssstttt22tsssstt=ttt2ttt2ssttttttt22styyygkkgyyppyq88tttttttstt2ttssttshst222t2=tshstgtshtshshstssss2",
"38888yq888qyyyy82222tsfftttsstt2tttttt22tt222st2t2ttssss22=2t22t3yy88yy888yyyy88t2ttttstttt2ttttsssssttt2tttttsht2ts=2stststttt2",
"888yyqyq88yyypyyt228tttttssssst22ttt222ttssttss22ttttttst22tttttyys8888<<88ypggy2tttsttttt2ttttttt2tsfhf2ttt2tsh82tt%=tttssstttt",
"888y8y888qyyyyyy2t2tttt2tstsstt22tssstttttt2tsstttttttttfttshhhfyggpypy3<8qypgpy2ttsstttttt2ttttst2tssstfstttsshsthf22hhtssttttt",
"888qy8yq8888888y2222tssttttttttt2ttsssss2ttt2tt2tsssttttt22tstss8yyqyggy8qqq8q88tttttttttt2tttstsstttt22st2tshssstss2tfsttttt222",
"88qy8yq8y8y8qq88t2ttsssttttsttstst2tshss2sssssfstssssstf222tttts<8888yy8yyq888qqssttttttttttssststttstt2ts2tttttt2ts2tststtttst2",
"3888yqyqgpyyyyyqssttss22tsssfsssstttffstshhhhhhhttsssshhtshhfthb8yyy8yy8yyy8qyggfsttt22tttt2tsst2ttsssstshhhtttts2sstss2hstsfhs2",
"<88888qy8ykgy8yght2sst2tf22shhttt22tsfststtstt22ttsssssst2thhttty<<8gyyppgpypyyytts22tttsttsstshsstt22tsfst2sht%tshhssttsfsssttt",
"8yy8888yyypyyyyyhstsstttsttssststttshhhsttttsttt2tttttt2stshft2tg88qy88yyyyyyy8yttttt2tttt2tstthttttttshtssttstttttsshstsssssst2",
"8yyyq8yyyyyypgyysttssttsttttt2ts2tttttsftttstttt2tttsstthsfhht2tyyyy88888y8qqq88ttttt2tst2ttssfh2ttssssh=tft22shs222shstststttt2",
"&<88yyygyyy8qyyytssst2tttttt22ts22ttt2sf22tttsst2ttsstttssshst22yyyy8<8yy8y8q8882ttttttstttsssshttssssss=tssttshtt22tssttttttt2t",
"&<88yyyy88yy<<8y2tstt2ttstt2ttt2ttssttsh2ttttsss222ttt2ttttss22s8yy888ygyyyqy8y82tttttts222t2222sssfsstttttstttsttt22ttstttttt2t",
"<88q8888<yyy<<8g=tttttttss22tst2ttttt2ts2ttttststttttttt2=2tstts<8y88yypyyyyyyyyttsssttts2ttt22tsssssst2st2sstt2ttstt22ttt2t2ttt",
"<8yyq888yyyq88yp2ttttss2sssttss2st222222t2tttttsssttsssst22tttts88838ggyyyyyyqqyttssttttsttssttssstttst2st2tst2tttttstttttt22ttt",
"<8yyyyyqgy8qyyyy2tttths2tshsttt2hstttttttttttsttttt2ttsst2ttstts8y8<8ggqyyyyyyy8tsssstttt2tttttstt2ttstts2tsstttt22tshstttttttts",
"8838888yyyypggy8ttsssssthttfbsttstt222tsft22tsstshst2==2hsshhsssy&<p88ygp8<ygyyvsst2ttsstfst2tt2st2==2tfhhfshf2=st88ygy<gy8ygvy8",
"38888q8q8qyyyy88tstssssshttshtttstt2tttsst22tsttths2st2ss2tsstt2p38g8ygygyygyyyystttttsstsst2tsthft22ttsststsss2gyyyggy<yyqqgyy8",
"888yyy8q8qyyy8qystt2ttsstt2tstttttttttttttttttts2sstsstht22shstty8gy8yg8qygyyyy8t22ttsss2sstttsshsstttssttttttttyyyyy888yyyyyq88",
"<88yyy888yyyyy8yttt2tttt22tt2tts2ttttttt2tssstss2s22st2ssttssttt88gy<yg&&8yqqgg8t2ttsssstssttssssttttsfhtsttttttyy88<<3y8yyy8388",
"<88yyy83qyyyyqyy22tststttsstttts2ssttst2tssssssf2st2hs2ts22tttts8ygy<yg&o8pyygp822tttssstsfttttt2t2tssssttssttssyt88<;8vqyyyy888",
"<888y888yy88yyy8tttssttthcsttttt2fsttss2ssssfsfftstthhtsst2tsssfgyggqyg8<ygyyyyyt2ttttsttsst2tttssttt2ttttttshhhgyyy8<yvyyyyy888",
"<8388888y8<<yyq3ttsssssshhs2tssttfhttss2stttsssststtbhtssttfhhssg8ygyygy<<qgy<<yttt2ttts2tt22tttsstt22ttt2tthhfsgqygg<<88888yq8<",
"83<<<<88y<&&8y8&sstttsshst22tbhs2hh2thhtft22tsst2t22hstt22thhsttv<8gy<yyoo;88&<pttt2t2ts2tt22sssstt2tttsst2shht=y38gg&o&q<<<8y8<",
"<;<<3<88838yyq8<ft2shsshst2thcsttstsssssttst2tshhhstsssttst22tt2gyyygkgy&3y8<<3yttt222tts2=2tt222ttt2tt2s2ttshssggyy8888g<&<8yyq",
"<<<<88883<88ypyysttssttfttttssttt2ttttttssssttttst2ttsstttttttstyyyy83888q8yq888tstt222tttsssssttstttst2tttttsssy8888y88gyqq888q",
"<<<<88888<88yyyystst222s2ttttt2ttttttttttsstt2ttt2ttssssttst2sst<8y8<&&8yq8ypyy82tstt2tt2thhhssstst22tt22tsttttf8<<<qyy8gyyy8<<y",
"<<88888888<3888<2tst222t22ttt2ttttttssts2ttststs2tttttsstst22t22<888<<888888yq882ttsttt22tssssssttt==ttt222t22tt<8<8388y3<<q8<8y",
"33<88888y833288<=ttt22tstt2tsfs22t2ttttt2tttststtttssttttst22t22qq88yyy8&<q883qyttt22ttths2ttsstttt==ttttt22tst28yyy<<3q8&&<yy8y",
"<3<88888q888yyyy2tttttstst2thhs2tttsstttstttttt2tsssttt2tttttsstky8yyyq8&8py88ykst22ttssbh22sfstttt22tssftttshst8ggy<<8yy3&8yy88",
"<<<3388888yygyyy2st2=tttstttssstssshhfshstttttt2tshhtttttttt2sstyyy888888yyyy8yystt2tsstftttsssstst2tsfssttsssstyy88qyqyg8<88838",
"<<<<<<88qtyyyy8=tst22tt=2ttstttsttsssssss222tttttshfsttttst22tt2<888<<<8yyyqyy8<tt2tssst2tsstsssttttttssttstt22s8<&<yggqy8<<<&<y",
"&<<3<<83yyyyyyyyst2tst= tssst22tt2ttssttfttssttttsssfstttttttt22y88838qy3;&88888=tsssst=st22tsststtshffhtst==2tt88383<;+8<;;<38<",
";<3883883<<8<388ttttttt=ttstt2222tttsstth22t222tsstttttsstttttttyy88888yq3<88838<8tttts2tttttttssttts2ttshstttst8388y88<88<<<888",
"<<88888q88888883ttttttstttst22t2t22tssstht22ttsststt22tsststttttq88888yyy88yy8<<2t222tt2=tt2=2tsst2tt22tssstttt28888ypyq88<88883",
"<88y88yqy8y88q882tttt2tsstssttt2tttttssthfttshchtssst2tsttttttttqyq8qqqygy8yy888ttt22ttt2tttt2tttttssttststtttt2888yggyyyy88qy88",
"<8yy8qyyyq8888382tssttttssssssttt22ttssthhhfhbbctsshsttsssssssssq8q8yyyygy8pyyyytttsstttsstshhfsttsssttsfsshhft28yyyyyy8yqyyyyy8",
"88qy8yyyypyyyyy82tsst222ssssssstttt2tsstsfssshhstsshssttssssfshhq8yqyyyypq8ygyypsttsstttsttthhstsshht2=2sttsssttyyyypy88yyyyyy88",
"<88qy8yygggpgyyyttttt2ttstttsst2tt2tttsssst22ts2ssttsst2ssssssss8q8yyyyyy8qpgyyysttttt2s222tttt2sshht==2s2=tst2tyyyygyy8pyyyyy88",
"<88y88qygpyyyy88stttttfhtt2tttt2ttt2tssstst==tt2hs22sstt2t2ttttt8qyyypyygyqypyyyht222=tgtshhstssttfht2=ts2=thsttyyyyggy8pyyypy83",
"8yyyyyyyyypyyyy<tttt22==t22scht=22t2t2222fsttsst%2t2ths22222ttt28ygyyy8&38q8ygy82ttttfhtssssstsf2sssttstttssttssq888<+8vyggy3<8y",
"3888y888<yyy88y82ttttt2=tt2tsst2tttttttttssstss2tsttsfsttttttstt8ypqqyy8<888ygy82ttttssttt2ttttttssttstt2tttt2ttyyyy8&<g<8yyq8qg",
"<<888888o8yy888y2ttsttt22t2tttttststtttsttshstttt2ttsstsst2tttt28883<8y8<8888yy82tttttttt222ttt2sst2tfst2t2t22tt<8y8<8q8&8yyyqyy",
"<<388yyyo3y888yy2t2tttts2ttt2ttststtsstst2thhtttt=%tstthttt222t2383<<<88888yy88<tttttttttt2tssstss22thf2t2tttttt&<3<3yy38qqy8888",
"<<<888yy8888qgy<t2222tshtttsststttttttsss2tsht2st==tstshfstttttt8q8y88<<yyyyy8<<tttttt2ts22tshstss22tfstttt2ttyt<8<&<yg8gy8<8888",
"&;<<88yygy88ygy8ttt22tssttssfsstt2tttstssttssstssttssstssstttsttgppgg88888yy8<<8t22tt2tttt22shstsst22ss2ttttssstggy88yq8gy<<<8y8",
"<<<<<8qygg838ygysttttttsstttssstt2ttttsstssttsstssstsss2t222tt2tvyyggyqg<<<y8<<ys22tt2ts222tttss2st2ttststttsssygyyy8<;<y8&<8yy8",
"88838yygypy<<yggsssfssttft2=tssttttttssstfs22sft2tstshs2tttsfsstgy8yy8yvoo&88<<yt22tt22sttsssssh2tttttt2ttttsssyy88pq&o;y3<<yy8<",
"882222tthsssttss2tssstttsbbt2tt2thsttss2tthhstssshsshhtthstsfhfcbtths2sf=shtttttttttttsshht2hftssttstt2t22tthbhhbtsct=ttstt2tt22",
"t2ttttttssststst2sssstsststtttsstssttsst2sfsssts=t22hhsss22tsttthshhtsht=shstttst2tttstttsttchthttttstttttstssssc2tht2tsssststtt",
"22ysstt2ttstttttttttttss22ttttts2ssttss2ttssttss2st2ssttt2ttsttt2shs2fh==tstttff22ttsttt=sttft2tttsssfshtshst2tts2ts22ssssssttts",
"2ttsstttttttttt2tstt2ttss22st2ts2ttststtstttttssshttss2ttttssstt2tss2sh22ttstsss2tttssst2ss2t2=2sssssfhh2tsttttsh2ts22tsttsst2tt",
"2t2tt2tttttsttt2sttt2ttss22sstts2ttsssttstttttssts2tsstst2tsst2tbtshstshttsssttsttt2tssstbhss22shhssssssstttsstthtss=2t2ttss22ts",
"t2tttttttstsstttttt222tttttshhshtt2tt2tstt2ttsttsft2tt=2st2sssttb2thttshsttssttsst2t2tsstsstft2shstttttthsttss2=ftfh22t2ssssssss",
"2ttsstt2ssstttttststt2ttssssfhftst2tt2tttt2tsstthbs2t2==hstshssht=2st2sthttssttstttttttt2sttht==stttt2ttssssstt2stshttttssstssss",
"2tshhsttfssttsssttttt2ttfhhtshs=ht2tt2tsttttssttsh22sstss22ttsss2tss2hh2httssttstsssst22thhhBs%%t2222ttstshsttsfttshtts2stttsstt",
"2tt2tttt2ttssssstt222tttfsttsst=tts22=22tttttttt2tttsttttttsstttst22ttshttttttttssstsssstttsst22ttttt2tsssttttttttttsshhstt2ssst",
"=22t22ttssssssshttttt2ttstttttt22ttt2tts22tttststttttttt==2tttssttt2tttssttsstsstttttttttsssfstttstt22t2tststsst222ttssstt222tt2",
"=22tttssstttttsstttsttt2ttstt2t2tt2tttts2tttssss2ttttttttststtt22t2t2tt2ssttttttttttttttstssssssstttttt2tststtttsttstshhttttt2tt",
"2ttttsshtttttttttsssttt22tsttt2t2tttttttt2ttttss22ttttt2hhhsst2=ttttttttstttt222tttttttttt2tttsstt22sfssttttstsssssssshhtsssttss",
"stsstttsssssssstssssstt22tsst22tt2tttstttttttttt2ttttttttsssssststtttttsssttt2t2tttt2tttttt2ttsst222shsstststtsttt2ttttt2tst22tt",
"ttttt2tttsssstt2stsstttttttsttttt2tthhhhtsssstt2tttsstttttssssttssttttssffssstttt2ttttt2sstttssssstttstttsststtttttt2t2ttsssttt2",
"22ttt2tttsttt222ttttttttstttsssttttshhhsssssfssstttsssstsssssstttttttssssfssssssttttttttssssttssssstttttssssttttsssttssshfsssstt",
"ttttttsshhstt2tttttttttssstsfsststtshhs2sshhhhfhttsssststtsshchh22tssssttsstsssstttttttttttttt2ttssst2tshssstt22ssstttttssttsst=",
"<888qyyyy888yy88=ttt2ssttttttst22tsssssstt2tsttttsstttfh22ttt2tst88<<88yyy83qy8<sttt2ttt=tssttttt22tst2t=ts2tsttt88yggy<yq88ygq<",
"8888yq8y8888yyq82ssttssttttssstt22sssstt22tsstt2ssfstttts2tsstthsggggyyq88yyyyyy2ttstt2t=2tstssstt2tstttsttthNhtsgggyypgyy8qyy88",
"888y8yqq88yyq8qq=tt22tt2ttttsstt2ttsstt2tttssst22tssstttsttsssssypsgpy3<<8ggyyyg2ttssst2=2ttsshhst2tstsststtshft8ygy<<8vyyyyy888",
"888yq888<yygy88y=22222ttttttsttttttttt2tssttsss222ttsssst2=tsttt88q883<&<<8yyyyy2tttsttt22tsshhhstttsthh2tst22sh<8y<&&8ypggy8888",
"8qyqy8888ygyy8qytttttttft2ttstt2st2t2tttsst=2tttt2t2tssst2=tstttyyyqy8yqq888yyy8ttttttssttsssfssstttsttststtttthyyyytqyyyygpy838",
"888y8y88yyyyqyyysstss2tttttsstttst22ttttttt==tttstttttssst2sssssyqqqyygggy8yygp8stt22tsshsssfsststtt2=%=c2%2fht=gyyygky8ggyyyy88",
"<888y8yqgyyyyygphsts222tttsshsstst2tsfsttst22ff2ssttssttssshhssc<<88qyyyggyyyygpsttttttthsttsstttstt2===s2%2sst2y888ggy8gyyypyy8",
"8888qqyyvp88yygghstss22hsshhhhstt2tschstthhshNbstttshhsttshhssfc<8qygyy8qyy8<8yvsstsstttss2ttsttt2sstt2ttthbs22hyy8yyyy8py8yggy8",
"88yyyyyq<88yyy88s2thhttttttt22ttstttsssthhssssssttt222ttsttssttsg8<<8yy8838yy38gtsst2ttt2ttttt2t2tssssssfst2tfs=3yppq88yy8<3yy8<",
"<<888y88888888qyhsstt2tfttssttttt2ttstttsttttsssttstttttst2ssttsy8<<8y88yyyy8<8q2ts2t2t22tttt2tt2ttt22t2fhstsfs28qyyyyyyy8888y88",
"<<<38888y8888qyytsht=2ts2shhtt2t2t2tttt2222t2ttssssstttttttssttty88888y8y83q88<3=ttt2t222t2t2ttsttt22222sssttss2888yyy8<q8<3<88y",
"<<<<<388yq8888yy tst2ttt=thft=2ttt2ttsst2t22ttttttsstttttttstttt8y8883883<&<8q8822t2tstt2ttt22shtttttsss2ts222t2883888<o88<&&&<8",
"3<<33888qyyyyy88%tt2thf2ttst22ttt2ttssstttttttttttsstttttttttttt8qq8<<8883<<8yy82ttttsststtt2thbstttsssh2ts222t288<<88<&888&+&&<",
"8388888q8qyyyy88hhtt2sfstsstttssttttsfsssstssttttssfttttttt22sttq8q888<8yyyqygy8tssttsstsstttthhfstttttttssttsyt88388yyygy8<<<<<",
"3833<8qyyyyyy8t8chtttttstttshhss2t2tsfssttttttttttssst2t2stttty2gyqyyy838pg88ygysst2tts2ssstttshhst2ttttstttshgtyyy838ygyq888yq8",
"3<<<<88qgyy8t8ys22shs=2st22shhs2t22tssst222ttttt2ttttt22ttt2tty8gy8yggy<&8y88yyysst22ts2ssttttssstt2tsssytt2shs2vvp8<<3yq<<<yyy8"
};
