/* XPM */
static char *result[] = {
/* columns rows colors chars-per-pixel */
"32 32 14 1 ",
"  c #3C3B15",
". c #522710",
"X c #452226",
"o c #5E352D",
"O c #78441A",
"+ c #8F4C1F",
"@ c #825734",
"# c #916A3B",
"$ c #948465",
"% c #A89C80",
"& c #BDB193",
"* c #C3C1A2",
"= c #D4C8AB",
"- c #E0DEBC",
/* pixels */
"XOOO@@##################@@@OOOOX",
"OXXXXXXXXXXXXXXXXXXXXXXXXXXXXXXO",
"OX$%%%%%%.oX$%%%%%%%.oX$%%%%%%XO",
"OX$&&*&*&.oX$&&*&*&=.oX$&&*&*&XO",
"OX$&*&*&*.OX$&*&*&*&.OX$&*&*&*XO",
"OX$*&*&*=.oX$*&*&*&*.oX$*&*&*=XO",
"OX$&*&*&*.OX$&*&*&*=.OX$&*&*&*XO",
"OX$*&*&*=.OX$*&*&*==.OX$*&*&*=XO",
"OX$&*&*==.@X$&*&*=*=.@X$&*&*==XO",
"OX$*&*=*=.@X$*&*=*==.@X$*&*=*=XO",
"OX$&*=*==.@X$&*=*===.@X$&*=*==XO",
"OX$*=*===.@X$*=*===-.@X$*=*===XO",
"OX$=*===-.@X$=*===-=.@X$=*===-XO",
"OX$====-=.@X$====-=-.@X$====-=XO",
"OX$===-=-.@X$===-=-=.@X$===-=-XO",
"OX$==-=-=.@X$====-=-.@X$==-=-=XO",
"OX........@X.........@X.......XO",
"OXO@@@@@O.@XO@@@@@@O.@XO@@@@@OXO",
"OXX.......@XX........@XX......XO",
"OX       .@X        .@X       XO",
"OX OOOOOO.@X OOOOOOO.@X OOOOOOXO",
"OX +O+OOO.@X +O+O+O+.@X O+O+OOXO",
"OX +O+O+O.@X +OOOOOO.@X O+OOO+XO",
"OX OOOO+O.@X OO+O+O+.@X OOO+OOXO",
"OX +OOOOO.@X OOOOOO+.@X OOO+O+XO",
"OX OO+OOO.@X +O+OOOO.@X O+O+O+XO",
"OX +O+O+O.@X OO+O+O+.@X OOOOOOXO",
"OX OOOOOO.@X +OOO+OO.@X OOO+O+XO",
"OX +O+O+O.OX +O+O+O+.OX O+OOO+XO",
"OX +OOO+O.OX +O+O+O+.OX O+O+O+XO",
"OXXXXXXXXXXXXXXXXXXXXXXXXXXXXXXO",
"X@OOOOOOOOOOOOOOOOOOOOOOOOOOOO@X"
};
