/* XPM */
static char *b1fcc172c7264c74fd1c1aaeee8f10187tqg53uXuEiZaZ7T[] = {
/* columns rows colors chars-per-pixel */
"64 64 20 1 ",
"  c None",
". c #2C2A0A",
"X c #4F1813",
"o c #641E17",
"O c #6A6521",
"+ c #81251B",
"@ c #913C1C",
"# c #EA3005",
"$ c #289010",
"% c #379412",
"& c #3C9A12",
"* c #3DCD34",
"= c #48C54A",
"- c #4ECA4E",
"; c #5CD554",
": c #8A8428",
"> c #FFB300",
", c #BCC9D9",
"< c #CEDAE8",
"1 c white",
/* pixels */
"                                                                ",
"                                                                ",
"                                                                ",
"                                                                ",
"                                                                ",
"                                                                ",
"                                                                ",
"                                                                ",
"                                                                ",
"                                                                ",
"                                                                ",
"                                                                ",
"                                                                ",
"                                                                ",
"                                                                ",
"                                                                ",
"                                                                ",
"                                                                ",
"                                                                ",
"                                                                ",
"                                           ##                   ",
"                                           ##                   ",
"                                                                ",
"                                                                ",
"                                               #                ",
"                                              ##                ",
"                                             ####               ",
"                                            #####               ",
"                                             ###                ",
"                                              #                 ",
"                                               #                ",
"                                              #                 ",
"                                             ####               ",
"                                            ######              ",
"                                            #######             ",
"                                        1  ###>>###             ",
"                                        <1 ##>>>##              ",
"                                        <<1#>>>>>#              ",
"                                   111 #<@@@@@@@>>#             ",
"                                   1<<<@@@&&+%%+@@>#            ",
"                                    <@@@@%+++++;++@>#           ",
"                                    @@@@+%++++1;1++@>#          ",
"                               11  X@@++++++*1111+1+@>          ",
"                               11<@X+++++%+,11,-1,11+>>>        ",
"                                1@@X+++++%+,,1,=11,11>>>        ",
"                                <@@X++11XX$$,=$X<1,,1>>         ",
"                                @@++X11<:::,X1,,X,XX,>          ",
"                                @@++<<<O::::,11,,1,,1>          ",
"                               X@+++oXOOO:::111,11111>          ",
"                               X++1oooXOOOO:1<:11<<<>           ",
"                               X+1<oo::..OOOOO:<<:O>            ",
"                               X++ooo::OO... OOOOO              ",
"                                Xooo::OOOOO                     ",
"                  1             XoooOOOOOOO                     ",
"                 1<            +oXooOOOO...                     ",
"       @@    @@X@@<          11+ooXX....:::                     ",
"      @oo   @++X++@@  1     X1@++o1oOOO::::::                   ",
"     @+o  X@++oXO+++XX<1  11X@@++1<oOOOO:::::                   ",
"     +oo  X++oooXOO.:++<  1@X+++++<oOOOOO::::.::::              ",
"     +o+ @+Xoo    O.O::++X@@X++++:OoOOOOOO:::.::::              ",
"     ooo++oXo       .OO:.+++++++:OOooOOOOOOOO.O::::             ",
"      ooooooX        OOO.::::.::OOO ooOOOOOOOOOOO::             ",
"       ooooo           O.OOOO.OOOO   ooOOOOOOOOOOOO             ",
"                        .OOOOOOOO      OOOOOOOOOOOO             "
};
