/* XPM */
static char *_376ac21929148129209919b45a20743c7dvhsmdZMgyUHGD[] = {
/* columns rows colors chars-per-pixel */
"64 64 13 1 ",
"  c None",
". c #2C2A0A",
"X c #4F1813",
"o c #641E17",
"O c #6A6521",
"+ c #81251B",
"@ c #913C1C",
"# c #EA3005",
"$ c #8A8428",
"% c #FFB300",
"& c #BCC9D9",
"* c #CEDAE8",
"= c white",
/* pixels */
"                                                                ",
"                                                                ",
"                                                                ",
"                                                                ",
"                                                                ",
"                                                                ",
"                                                                ",
"                                                                ",
"                                                                ",
"                                                                ",
"                                                                ",
"                                                                ",
"                                                                ",
"                                                                ",
"                                                                ",
"                                                                ",
"                                                                ",
"                                                                ",
"                                                                ",
"                                                                ",
"                                                                ",
"                                                                ",
"                                                                ",
"                                         ###                    ",
"                                          ##                    ",
"                                          #                     ",
"                                                                ",
"                                                                ",
"                                             ###                ",
"                                            #####               ",
"                                           ######               ",
"                                           ######               ",
"                                           #####                ",
"                                      =     ###                 ",
"                                      *=   ####                 ",
"                                      **= #%%%####              ",
"                                 ===  *@@@@@@@%%###             ",
"                                 =***@@@@@++++@@%##             ",
"                                  *@@@@++++++=++@%##            ",
"                                  @@@@++++++===++@%##           ",
"                             ==  X@@++++++=====+=+@%#           ",
"                             ==*@X+++++++&==&*=&==+%%           ",
"                              =@@X+++++++&&=&&==&==%%           ",
"                              *@@X++==XXXX&&XX*=&&=%%           ",
"                              @@++X==*$$$&X=&&X&XX&%%%          ",
"                              @@++***O$$$$&==&&=&&=%            ",
"                             X@+++oXOOO$$$===&=====             ",
"                             X++=oooXOOOO$=*$==***              ",
"                             X+=*oo$$..OOOOO$**$O               ",
"                             X++ooo$$OO... OOOOO                ",
"                              Xooo$$OOOOO                       ",
"                              XoooOOOOOOO                       ",
"                              oXooOOOO...                       ",
"                 =            ooXX....$$$                       ",
"                =*          ==+o=oOOO$$$$$$                     ",
"            @@X@@*          =@+=*oOOOO$$$$$.$                   ",
"           @++X++@@  =     X@@++*oOOOOO$$$$.$$$                 ",
"         X@++oXO+++XX*=  ==X+++++oOOOOOO$$$.$$$$$               ",
"         X++oooXOO.$++*  =@X++++$ooOOOOOOOO.$$$$$$              ",
"    @@  @+Xoo    O.O$$++X@@X+++$OOooOOOOOOO.O$$$$$              ",
"   +++@@++Xo       .OO$.++++X$$OOO ooOOOOO.OOOO$$$              ",
"   o+++++ooX        OOO.$$$$.OOOO    OOOO.OOOOOOOO              ",
"    oo++oo            O.OOOO.OOO      ...OOOOOOOO               ",
"     oooo              .OOOOO.          OOOOOOOO                "
};
