/* XPM */
static char *_9bfe883cd6049dee86b91a05b3347d3RCUUKWag95LABGGf[] = {
/* columns rows colors chars-per-pixel */
"64 64 13 1 ",
"  c None",
". c #2C2A0A",
"X c #4F1813",
"o c #641E17",
"O c #6A6521",
"+ c #81251B",
"@ c #913C1C",
"# c #EA3005",
"$ c #8A8428",
"% c #FFB300",
"& c #BCC9D9",
"* c #CEDAE8",
"= c white",
/* pixels */
"                                                                ",
"                                                                ",
"                                                                ",
"                                                                ",
"                                                                ",
"                                                                ",
"                                                                ",
"                                                                ",
"                                                                ",
"                                                                ",
"                                                                ",
"                                                                ",
"                                                                ",
"                                                                ",
"                                                                ",
"                                                                ",
"                                                                ",
"                                                                ",
"                                                 #              ",
"                                                ##              ",
"                                                ###             ",
"                                                 ##             ",
"                                                                ",
"                                               ##               ",
"                                                %               ",
"                                            ####%%              ",
"                                            ===#%%              ",
"                                          ==&&===%%             ",
"                                         ==*&&&&*=              ",
"                                        @=*&+++++*              ",
"                                        @@++XXXXXX@             ",
"                                       @@@+X$$$$$$X             ",
"                                       @@+X$$$$$$$$$            ",
"                                       @@+X$$OOOOO$$            ",
"                                       @=+$$OOOOOOO$            ",
"                                       =*+$OOOOOOOOO            ",
"                                       **+$OOOOOOOO             ",
"                                        ooOOOOOOOOO             ",
"                                        ooOOOOOOOOO             ",
"                                        oooOOOOOOOO             ",
"                                        XXX.OOOOOOO             ",
"                                       ooo$$......              ",
"                                       oooO$$$$$$$              ",
"                                       o=oOOOOOO$$              ",
"                                       =*oOOOOOOOO              ",
"                                        oooOOOOOOO              ",
"                                        oooOOOOOOO              ",
"                                         XX.OOOOO               ",
"                                         oo$.....               ",
"                                         oo$$$$$$               ",
"                                         o=OOO$$$$              ",
"                                         =*OOOOOO$              ",
"                                          oOOOOOOO              ",
"                                          oOOOOOOO              ",
"                                          oOOOOOO               ",
"                                    =     X......               ",
"                                   ==+++++o$$$$$$$              ",
"                             ==  X@++++++ooOOOO$$$$             ",
"   ++                        =@XX@@++++++oOOOOOO$$$             ",
"   o+           *     =     X@@XX++++++++oOOOOOOO$$             ",
"   o++          =*    **    ++++X++++$$$$oOOOOOOOO$             ",
"   oo+++++X++++X@@@+X++$$$$.$$$$.+++$OOOOoOOOOOOOO              ",
"   ooo++++X+oooX++++X+$$OOO.OOOO..$$OOOOOoOOOOOOOO              ",
"     oooooXooooXOOOO.OOOOOO.OOOOO.OOOOOO  OOOOOOO               "
};
