/* XPM */
static char *result[] = {
/* columns rows colors chars-per-pixel */
"32 32 24 1 ",
"  c black",
". c #FFFF00",
"X c #FFFF00",
"o c #FFFF00",
"O c #FFFF00",
"+ c #FFFF00",
"@ c #FFFF00",
"# c #FFFF00",
"$ c #FFFF00",
"% c #FFFF00",
"& c #FFFF00",
"* c #FFFF00",
"= c #FFFF00",
"- c #FFFF00",
"; c #FFFF00",
": c #FFFF00",
"> c #FFFF00",
", c #FFFF00",
"< c #FFFF00",
"1 c #FFFF00",
"2 c #FFFF00",
"3 c #FFFF00",
"4 c #FFFF00",
"5 c #FFFF00",
/* pixels */
"                                ",
"   .&*15555555555555555551*&.   ",
"  #-555555555555555555555555-#  ",
" .-5<$+                  +$<5;X ",
" %5,@                      @>5% ",
" *5$                        $5* ",
" 45+                        O53 ",
" 55                          55 ",
" 55                          55 ",
" 55                          55 ",
" 55      5         5         55 ",
" 55      55        5         55 ",
" 55      5 5       5         55 ",
" 55      5  5      5         55 ",
" 55      5   5     5         55 ",
" 55      5    5    5         55 ",
" 55      5     5   5         55 ",
" 55      5      5  5         55 ",
" 55      5       5 5         55 ",
" 55      5        55         55 ",
" 55      5         5   5     55 ",
" 55                          55 ",
" 55                          55 ",
" 55                          55 ",
" 55                          55 ",
" 45+                        o51 ",
" *5$                        $5* ",
" &5>@                      @>5& ",
" X;5<$O                  O$,5:X ",
"  #-555555555555555555555555;#  ",
"   .&=25555555555555555552=&.   ",
"                                "
};
