/* XPM */
static char *_04e69bf8a054fb2b7372e3935b99472cqEBRyQvhOHzqO0F[] = {
/* columns rows colors chars-per-pixel */
"50 50 226 2 ",
"   c #0B0F0D",
".  c #180E0C",
"X  c #0D100E",
"o  c #19100E",
"O  c #0D1311",
"+  c #0E1A1B",
"@  c #131412",
"#  c #1C1413",
"$  c #181817",
"%  c #121C1C",
"&  c #1C1C1B",
"*  c #2E100F",
"=  c #231413",
"-  c #2A1715",
";  c #241B1A",
":  c #2B1B1B",
">  c #331513",
",  c #3A1514",
"<  c #321D1C",
"1  c #3B1D1B",
"2  c #18201F",
"3  c #22221F",
"4  c #34201E",
"5  c #121F20",
"6  c #1C1F20",
"7  c #2C1F21",
"8  c #311F20",
"9  c #152324",
"0  c #1B2424",
"q  c #172729",
"w  c #1A2B2C",
"e  c #1D2E30",
"r  c #1F3133",
"t  c #242424",
"y  c #2B2424",
"u  c #232C2D",
"i  c #2C2C28",
"p  c #3B2423",
"a  c #372729",
"s  c #352B2B",
"d  c #3B2B2C",
"f  c #373627",
"g  c #232F31",
"h  c #352F30",
"j  c #213436",
"k  c #2D3436",
"l  c #223739",
"z  c #2A3739",
"x  c #243A3C",
"c  c #353234",
"v  c #3A3233",
"b  c #441514",
"n  c #4A1514",
"m  c #431817",
"M  c #421D1C",
"N  c #4B1A1A",
"B  c #551616",
"V  c #5B1716",
"C  c #541D1C",
"Z  c #5D1B1B",
"A  c #631717",
"S  c #641A1A",
"D  c #6A1B1A",
"F  c #741D1D",
"G  c #7B1C1C",
"H  c #42211F",
"J  c #72201F",
"K  c #731F20",
"L  c #452424",
"P  c #4C2423",
"I  c #482829",
"U  c #4C2C2B",
"Y  c #532424",
"T  c #592323",
"R  c #532B2C",
"E  c #592B2C",
"W  c #433529",
"Q  c #4D2F30",
"!  c #493533",
"~  c #5A3433",
"^  c #622625",
"/  c #6C2323",
"(  c #682827",
")  c #6C2B2B",
"_  c #732323",
"`  c #7C2222",
"'  c #732B2B",
"]  c #7D2D2C",
"[  c #732F30",
"{  c #653938",
"}  c #723333",
"|  c #793A39",
" . c #534123",
".. c #5E4B32",
"X. c #694A26",
"o. c #6F4E34",
"O. c #5C4C42",
"+. c #714847",
"@. c #72645A",
"#. c #736A6A",
"$. c #831D1D",
"%. c #8A1F1F",
"&. c #921E1E",
"*. c #832323",
"=. c #8C2222",
"-. c #832827",
";. c #822C2B",
":. c #8B2C2C",
">. c #942525",
",. c #992626",
"<. c #932B2B",
"1. c #9B2A2A",
"2. c #853737",
"3. c #8C3332",
"4. c #953333",
"5. c #9D3433",
"6. c #993939",
"7. c #A62A2A",
"8. c #A22D2D",
"9. c #A33434",
"0. c #AB3434",
"q. c #AF3837",
"w. c #A53B3A",
"e. c #AC3A3A",
"r. c #B53535",
"t. c #B43A3A",
"y. c #BB3C3C",
"u. c #C33D3D",
"i. c #815F2F",
"p. c #926936",
"a. c #8C4845",
"s. c #964B4B",
"d. c #885A56",
"f. c #AE4444",
"g. c #A74A4A",
"h. c #B44343",
"j. c #B94646",
"k. c #B64A4A",
"l. c #BA4B4B",
"z. c #B65958",
"x. c #A87A59",
"c. c #936E6E",
"v. c #A76867",
"b. c #B76965",
"n. c #B37575",
"m. c #C44343",
"M. c #CC4646",
"N. c #C34B4B",
"B. c #CB4B4B",
"V. c #D34E4E",
"C. c #C55757",
"Z. c #CB5555",
"A. c #D35353",
"S. c #DB5454",
"D. c #D65C5C",
"F. c #DB5C5C",
"G. c #E05454",
"H. c #E25E5E",
"J. c #C96262",
"K. c #D36464",
"L. c #DC6262",
"P. c #D86969",
"I. c #C47878",
"U. c #D37E7E",
"Y. c #E46364",
"T. c #EA6666",
"R. c #E46C6C",
"E. c #EB6D6D",
"W. c #F16D6D",
"Q. c #E8706F",
"!. c #E57776",
"~. c #EB7474",
"^. c #F27373",
"/. c #F27E7F",
"(. c #B7813C",
"). c #998365",
"_. c #B3966F",
"`. c #D99947",
"'. c #DDA358",
"]. c #E7A34D",
"[. c #E9AC5E",
"{. c #CDA575",
"}. c #AD8B86",
"|. c #BAAEAD",
" X c #CF8E85",
".X c #DC8989",
"XX c #E68281",
"oX c #EB8586",
"OX c #E38B8B",
"+X c #F28282",
"@X c #F88787",
"#X c #F38989",
"$X c #EB9595",
"%X c #F89B9C",
"&X c #E5BA82",
"*X c #D9A7A8",
"=X c #C9B6B0",
"-X c #D9BDBD",
";X c #F5A6A4",
":X c #F7ACAC",
">X c #F9ABAB",
",X c #E8B5A9",
"<X c #E6B6B6",
"1X c #F6B3B3",
"2X c #FAB4B5",
"3X c #F2BABA",
"4X c #FCB9B9",
"5X c #EFC287",
"6X c #D7CBB5",
"7X c #E6D4B9",
"8X c #F1DABC",
"9X c #ECC5C5",
"0X c #F9C9C9",
"qX c #F4D4D1",
"wX c #FCD5D5",
"eX c #FCDADB",
"rX c #F7E2C1",
"tX c #ECE1DD",
"yX c #FDDFE1",
"uX c #FDE3E3",
"iX c #FBEEE7",
"pX c #FEECEC",
"aX c #F9F5EF",
"sX c #F7F5F2",
"dX c #FDF4F4",
"fX c #FFFEFE",
/* pixels */
"e r l x x x x x x x x x x x x r e w f  .X.p.(.`.].].`.x.i. .f 3 2 2 r x x x x x x x x x x x x x e q ",
"e r l x x x x x x x x x x x x j w u ! ..o.p.`.'.[.[.`.`.p.X.W f 2 2 r x x x x x x x x x x x x x q q ",
"e j j x x x x x x x x x x x x k i v O.@.)._.{.&X5X5X{.{.x.i.X.d 2 2 r x x x x x x x x x x x x r q q ",
"e r l x x x x x x x x x x x z v H ~ d.}.=X6X7X8X8XrXrX7X Xb.a.~ 7 % q r x x x x x x x x x x x r w q ",
"e r x x x x x x x x x x x x k L Z 2.v.=XtXiXsXaXaXaXiX0X;X!.z.| 4 $ 2 r x x x x x x x x x x x x q q ",
"e r l x x x x x x x x x x x k L S :.z.*XwXdXfXfXfXdXuX0X;X~.z.} 4 + 5 r x x x x x x x x x x x r q 9 ",
"e r x x x x x x x x x x x x k I D :.g..X2XeXdXfXdXeX4X%X/.Y.f.) < @ 2 r x x x x x x x x x x x r w q ",
"w r x x x x x x x x x x x x k I Z -.f.J.oX1XeXpXeX2X#XQ.F.B.6.E : @ 9 r x x x x x x x x x x x x q q ",
"e r l x x x x x x x x x x x z d Y / 3.g.C. X*X9X<X.XP.Z.h.w.] Y : + 9 j x x x x x x x x x x x r q q ",
"e j l x x x x x x x x x x x z c p P E { +.d.c.n.n.z.f.5.;./ Y 4 & % q x x x x x x x x x x x x x w q ",
"e r l x x x x x x x x x x x x l t t i a p Y [ 2.4.4.=._ C 1 : 2 % 9 r x x x x x x x x x x x x r q 5 ",
"e r l x x x x x x x x x x x x r 9 5 q ; - n A $.&.&.*.D m = % % + 9 r x x x x x x x x x x x x r q + ",
"e j l x x x x x x x x x x x x r 9 5 t : b V G &.&.7.>._ M # + + 5 9 r x x x x x x x x x x x x r 5 + ",
"e e l x x x x x x x x x x x x r 9 6 a Y D *.1.0.u.y.q.:.C ; + + + 5 r x x x x x x x x x x x x r 9 + ",
"e e l l x l x x x x x x x x l g 6 7 R ' :.w.l.C.V.V.m.w.) L ; 2 % 2 r x x x x x x x x x x x r r 5 + ",
"e e j r r j r r j r r r r r w t 8 N / 4.h.C.U..XOXQ.D.l.6.' Y < % + q r r r r r r r r r r r r q 5 + ",
"e e e e e r r e e e e g g e 0 8 N / <.j.K.OX1X9X3X$XQ.D.j.w.;.C - + 5 w j e r r r r r r e e w 9 5 + ",
"e e j j l j j j x j j j j g h R / :.h.K.oX>XeXpXeX>X/.T.S.m.5.) M : 2 w r j r r r l j r l l r w 5 + ",
"e j l x x x x x x x x l k d Q ' 4.h.J.OX1XwXdXfXeX2X+XT.G.M.t.:.( H y t q r l x x x x x x x x r 9 + ",
"e e x x x x x x x x x k d E / 4.j.K.OX3XeXdXdXdXeX>X+XT.S.B.y.q.5.] Y 7 2 q r x x x x x x x x l 9 5 ",
"e e l x x x x x x x k v R ' <.h.K.oX:XwXdXfXfXdXwX>X{.H.V.m.u.u.m.w.' L y 0 r r l x x x x x x r w 9 ",
"e j x x x x x x l k v R ' 4.f.J.OX1XwXpXfXfXfXdXwX>X/.L.B.t.r.M.V.C.g.| ~ W u w r j x x x x x l w 9 ",
"e r l x x x x x k d Y ' 4.l.K.OX1XwXpXdXfXfXfXdXwX>X/.D.h.8.0.N.F.Y.K.z.s.{ a 2 q r x x x x x r w 9 ",
"e r l x x x x z v R ' <.h.K.oX2XeXdXfXfXfXfXfXdXwX;X/.Z.e.>.<.h.D.Q.^.~.J.a.U 3 0 e l l x x x l w q ",
"e r l x x z k ! ~ [ 4.g.J.OX:X0XpXfXfXfXfXfXfXdXwX%XR.N.9.=.>.w.N.K.E.^.Q.z.a.~ d i g r l x x l w q ",
"e r l x x k I Y ' 4.l.K.OX3XwXpXdXfXfXfXfXfXfXsX0X$XK.u.8.=.*.>.9.j.D.E.~.P.z.s.{ d 0 q r l x r w 9 ",
"e j l x x c I / <.h.D.oX1XeXdXfXfXfXfXfXfXfXfXsX9X.XN.0.,.$.G G ` 1.j.L.Q.~.~.J.s.Q 6 5 w x x l w 9 ",
"e e l x z h R K <.h.L.#X4XuXfXfXfXfXfXfXfXfXfXsX9XU.k.,.$.S V B V _ 6.l.D.E.^.P.s.U 5 5 w l x l w 9 ",
"e r l x x h R K <.h.L.#X4XuXdXfXfXfXfXfXfXfXfXsX-XI.w.$.A b > > , N _ 4.h.F.Q.P.s.Q % % w l x l w 9 ",
"e r l x z c Y K <.h.L.#X4XuXfXfXfXfXfXfXfXfXfXsX-Xn.3.A b * # @ # > N J 5.N.Y.K.s.Q $ 2 w l x l w q ",
"e r l x x h R K <.y.K.#X4XuXfXfXfXfXfXfXfXfXfXsX-Xv.[ n * o O O @ # > B _ w.Z.C.a.I & 2 e l x l w 9 ",
"e r z x x v Y K <.h.L.#X4XuXfXfXfXfXfXfXfXfXfXsX=Xc.R * o @ @ O O . = > T 3.j.l.2.P $ 9 e l x r w 9 ",
"e e r l j h P K <.h.L.#X2XyXdXfXfXfXfXfXfXfXfXsX|.#.y o X @ @ @ @ @ @ # 1 ' w.f.] L $ % q w w q 9 5 ",
"e e e r g i H Z ` f.L.oX>X0XyXuXuXyXyXyXyXuXpXqX|.@.t X   @ @ @ @ @ O X : ( 9.0.] M # % 9 9 9 % + 5 ",
"e e r r g u 7 1 ^ 6.K.+X%X;X1X1X1X1X1X1X1X4X4X,X}.O.t     @ @ @ @ @   O : ( 5.0.] M $ % 9 q q 9 + + ",
"e r l l l g 6 ; I a.J.~./.+X#X#X#X#X@X#X#X@X@XXXb.{ 7 O O @ @ @ @ @ O @ < ) 5.0.] M & 5 w j j e 5 + ",
"e r l x l r 5 & p | z.E.^.W.^.^.^.^.^.^.^.W.^.L.z.[ 8 = . @ @ @ @ @ @ = 1 _ 4.9.' M $ 9 r x x j 9 + ",
"e r l x l e 5 % p } l.H.W.W.^.^.^.^.^.^.W.W.Y.S.f.] C , = @ O O O @ * , C ` >.<./ < # 2 w x x r 5 + ",
"e r l x x r 9 $ < ) e.A.H.T.^.^.^.~.^.^.W.T.F.M.t.<.K B , # O O X = , V D $.%.G B > $ 2 w l x j 9 + ",
"e r l x l r q 5 4 ^ 3.h.B.F.Y.W.E.E.E.Q.T.F.B.y.7.,.$.A b > = = > 1 Z ` %.$.F S N : & 0 j x x r 9 + ",
"e r l x x j w w y L ^ ] 6.f.N.A.F.F.H.H.S.B.y.8.&.&.$.D V n N C ^ ' :.1.1.` Z N > t w e j x x r 9 + ",
"e j l x x l l j u i 4 M T -.5.t.m.B.V.V.M.y.8.>.%.$.$.G D D K -.4.9.t.r.9._ N - ; u r x x x x r q 5 ",
"e r l x x x x x r q 2 : m S F <.0.y.u.y.t.0.>.$.$.G G $.$.$.>.7.r.u.u.t.4.( 4 3 9 r x x x x x l w 9 ",
"w r l x x x x x l e q 2 : , V F >.8.7.0.8.,.%.G G G G %.>.1.0.y.u.y.w.3.) P y 0 w r r x x x x l w 9 ",
"r r l x x x x x x j r w t - , C K =.>.=.=.%.%.G G G $.&.1.q.y.u.u.e.;.T 4 i u r r x x x x x x r w 9 ",
"u r l x x x x x x x l j q 2 - 1 S F G G G F F G G D G $.1.e.y.y.t.5.) 4 2 q r l x x x x x x x r w q ",
"e r l x x x x x x x x j e q 0 < M N T T T T T T T T T ^ } 2.2.2.| ) U i w e r x x x x x x x x x w 9 ",
"e r l x x x x x x x x x j r g u 7 8 d v s s a a a a a d Q ! ! Q I p h g r r x x x x x x x x x r w q ",
"e r l x x x x x x x x x x x x j 2 9 j z u u g u g g u g u g g u 2 0 r x x x x x x x x x x x x x q 9 ",
"w j x x x x x x x x x x x x x r 9 2 r l r e e e e e e e e e e q 2 2 r x x x x x x x x x x x x j w 9 "
};
