/* XPM */
static char *_d3c16c0369549a2d798fe752b987cf9e2mFbL8fU1EVg1s3[] = {
/* columns rows colors chars-per-pixel */
"50 50 53 1 ",
"  c #100F0B",
". c #12110E",
"X c #151513",
"o c #181717",
"O c #171817",
"+ c #181917",
"@ c #171818",
"# c #191B1C",
"$ c #1B1E20",
"% c #1E2124",
"& c #202326",
"* c #212529",
"= c #25292E",
"- c #262C31",
"; c #292E34",
": c #2A3037",
"> c #2D343C",
", c #30373F",
"< c #31383F",
"1 c #2E3741",
"2 c #2F3842",
"3 c #303740",
"4 c #333B44",
"5 c #343E4A",
"6 c #36414D",
"7 c #39424D",
"8 c #374251",
"9 c #394553",
"0 c #3D4856",
"q c #3D4A5A",
"w c #414E5D",
"e c #43505F",
"r c #404E60",
"t c #455363",
"y c #485767",
"u c #465669",
"i c #485669",
"p c #47586C",
"a c #4A5A6D",
"s c #4C5D72",
"d c #4F6176",
"f c #4F6179",
"g c #506175",
"h c #53657C",
"j c #536781",
"k c #566B86",
"l c #586C85",
"z c #576C88",
"x c #586E8A",
"c c #5B718D",
"v c #5E7694",
"b c #607897",
"n c #617A99",
/* pixels */
"####$@@$o##$$o$o$$@@$$$$$$$$o$$@#@#$@$$@$@$@###@#$",
"$$$$$$#$$$#$$$$$$$$$$$$$$$&$$$$$%%$$$$$$$$$$$$$$@$",
"%%%%*%%%%%%%$%%&=;;;;;;:--;;;1;;---=*&$***$***&%$$",
":;:;--;;-====*=-15q5qq555q5q55q50853;-:;;:::;;;;-=",
"43,;;:11::-;--=:5sjjjjjjjjjjzjjjhhi8,;;,114444,:::",
"44,>1142,:;;::3wsxnnbbnnvnnnnnvbnbjy5,,,124444<,::",
"54,>>344,:-=:5wajcnnnnnnnnnnnnnnnnxhiw4,:>34444,1:",
"44,>>131:::,5eghzzxxxxxxxxxxxxxxxxljhaw41>33444,::",
"44<,:,,::,4wtshhjjjpppspsppspppjpssjjfat74,;,<<>::",
"74<::,,::4wahhggrr8qrqqrqqqrqqq8qrrpffhgaw<>:<<>::",
"4<<:;:,4wwaghgat998959995q5q995899qriahhgaw74<:>:;",
"<,,;=-<wtghhgir9989988555q9588885q5qwradhhgy7,---;",
":;;==-4wgggatw5w99981111111111555qq55weeaghg0>===-",
"=;==*-4eggtw5ww7995511**#$#$*-11555q75wwwyggw>=*==",
";=-==-4egaw745775551=$$@...@@#$=,4575755wegaq,====",
",>>;=-4egge7445511-*$#.@..X.X@#$=:34554<5eggw<==:1",
"666>;-4egse744421=%$oXX.XXX..XXo$%;>44449ygaq,-:45",
"886<::4egse7444>-$#@X..XX.X.X.XX@#%:<4447ygaq<->49",
"9996:;4egae74421*#@..XXXXXXXX.XX.@$->444wyggq<;>59",
"9992:;4eggt74411*#X@o$ooX..Xoo$oXO$-<4467eggq2;>59",
"9982::<waae72521*$X@$$$oXX.X@$$$@X$=12217eaaw>-:48",
"9982:*:4w76>:::-$@@@**$o..XX$$&%$X#%-1;1<4w7<==:58",
"9982=##&==&&***%$@X$$*$oX..X$%*&#X@$%%***===&#&-29",
"8882-%#+++$&***$$X@$==&$X..X#&-&$X@$*%**&#+oX#&-56",
"2621:-%#O#%:111-&#+&-;=#X..X$=:=$##%>111:%oX$%-112",
":::;:-%$#$;48881=#+&:,=#X. o$:3:$@$-48991=#o$%;:::",
"------%%O$:59q95-$#*>,-&X.Xo%;3;$$$;5qq95-$o#%----",
"::::::%$#%:69q95-#+*:,-$X..o%;,:$$$:59995-$@$-;:::",
"522221-%#$:59095-##*:1-$X..o%;3;%#$:59q94-$$%:2242",
"8888881%#$;59094=##*:1-$X Xo%:3:$$$:59994-$@=18888",
"8888881%#$;48974-##*11;$X..o&:3:%$$;59982-$@=16988",
"6666651%#$-4584,=##=24:$X..o&>4,%@$-25551*@$=>5666",
"4446<<;%+$;<544,*$#-151$X..@*151*@$-45554-#o*>3555",
"4644w<;&+%;47w5<*##-151$X..@%151*#$-55553-#o*>4444",
"44444<;&+$;58074-$#-151$X..X*181*#$-50q54-$#&:4444",
"64464<;%#%;<7954*##-55:$X..@%151*#$-55553-$#&>4444",
"<<<<<<;%+$=<574,*##*151$X..@$151*#$-1555,=#o&:,,43",
"::::::=$o#=,444>*@@-15;$.  @$111*@#*1155:=oo$=:::;",
"==;===&#+$=<444,*$#-551$X.X@*151*#$-1555,*#o#*=--=",
";-;==***=:44www71>>5qr51---:2qrq11125rr57<-==&==--",
"1>>;*&;<wwtyggggpppjjsjpuuupssjssppsgggayew7,=&*;>",
"554;&#=7yaagghllkjzzzzjjkkkzxzxzzzzxzjhgggae<*#*>5",
"887>&+&<wetetisssjpjpjpjssssssssssssssytetew:&#=37",
"884>&+%;47w489qqrqqrrqqqqrqrqrwwqqwqqq5w777<;$o*<4",
"554:%+$;<444559099qqqq9q599999999999w55444<,=##*,4",
"44<:%o#;<4444585955555555q9577785995774444<,*#o*:4",
"44<:%o#&=;;;;>3>111111111111,>,,1211,:::::;=&++*;4",
"44<-$oo#$%%%%$%&*$$$*$$$$*$*&%%&$$*$%%&$$%$$+oo*;4",
"6<<>*####%#+##+######+##########$$$$@$@@#@oo@#$-,4",
"444<:-**=-==&==&=&&&&=&&&=&&***&=$**&&**&$@$&=;>,4"
};
