/* XPM */
static char *_e60ba3e9aa14166a2f0db1dbb1610e1VVBdQb8a0cUxtAXt[] = {
/* columns rows colors chars-per-pixel */
"50 50 88 1 ",
"  c #1D2E30",
". c #1F3133",
"X c #223739",
"o c #243A3C",
"O c #203537",
"+ c #192A2C",
"@ c #213537",
"# c #23383A",
"$ c #19292A",
"% c #121E1F",
"& c #142122",
"* c #1F3234",
"= c #243B3D",
"- c #162426",
"; c #162527",
": c #203436",
"> c #172729",
", c #182729",
"< c #132122",
"1 c #152324",
"2 c #1F3334",
"3 c #152325",
"4 c #101B1D",
"5 c #253B3D",
"6 c #1D2F31",
"7 c #1E2F31",
"8 c #19292B",
"9 c #142123",
"0 c #0E191A",
"q c #1A292B",
"w c #142223",
"e c #1E3032",
"r c #132021",
"t c #132022",
"y c #1C2C2E",
"u c #1B2C2E",
"i c #1B2B2D",
"p c #1B2B2C",
"a c #172628",
"s c #111D1E",
"d c #23393B",
"f c #1E3133",
"g c #1C2E30",
"h c #111E1F",
"j c #182829",
"k c #1A2C2E",
"l c #18282A",
"z c #152224",
"x c #142022",
"c c #121F20",
"v c #101B1C",
"b c #203234",
"n c #0F191A",
"m c #152426",
"M c #111C1D",
"N c #111C1E",
"B c #101C1D",
"V c #0F1A1B",
"C c #131F20",
"Z c #1A2A2C",
"A c #203335",
"S c #213436",
"D c #1E3234",
"F c #172527",
"G c #19282A",
"H c #172627",
"J c #162526",
"K c #24393B",
"L c #1D2D2F",
"P c #1C2D2F",
"I c #1E3233",
"U c #142224",
"Y c #121E20",
"T c #1D2E31",
"R c #243A3D",
"E c #253C3E",
"W c #213638",
"Q c #1A2B2D",
"! c #18292B",
"~ c #1D3032",
"^ c #223638",
"/ c #1C2E2F",
"( c #0F1B1C",
") c #203435",
"_ c #172728",
"` c #203536",
"' c #1F3233",
"] c white",
/* pixels */
" 7ASSSSSSSSSSS@f!alZZZZZZZZGH-JwBrg@@SSSSAf~~6uj1r",
"  7eeeeeeeeeeeePl;aaaaaaaaamcMNBVCZeeeeeeg+ll;tsBv",
" .XooooooooooooO++@#.          $%&*=oooooooooooO+-",
" .XooooooooooooO++@#.          $%&*=oooooooooooO+-",
" .XooooooooooooO++@#.          $%&*=oooooooooooO+-",
" .XooooooooooooO++@#.          $%&*=oooooooooooO+-",
" .XooooooooooooO++@#.          $%&*=oooooooooooO+-",
" .XooooooooooooO++@#.          $%&*=oooooooooooO+-",
" .XooooooooooooO++@#.          $%&*=ooooooooooo@+;",
" .XooooooooooooO++@#.          $%&*=oooooooooooO+-",
" .Xooooooooooo=:>>:#.          $%&*=oooooooooo=:,<",
" .Xooooooooooo=*112#.          $%&*=oooooooooo=*34",
" .Xoooooooooo=5*<&*#*        678%9*5=oooooooo=5*90",
" .X==oooooooo55*&&*#*       677q%9*55oooooooo55*w0",
" e@###########X6rt6@6yyyyyyuipias<ed##########X6<0",
" 7.**********fg>h%jk8llllllazx&cvrubb********fg,%n",
"  7eeeeeeeeee +mss3>aaaaaaamcMNBVCZeeeeeeeeee +msV",
" 7ASSSSSSSSSS:DZcsFZZZZZZZZGH-JwBrg@@SSSSSSSS:DZc0",
" .XooKKKKKKKKoofwc$        LPPLG%&IooKKKKKKKKoofwV",
" .X==oooooooo55:;UZ76       677q%9*55oooooooo55:HY",
" .Xooooooooooo=O8ai           T$%&*5Rooooooooo=:83",
" .Xoooooooooooo@+,u            $%&*=ooooooooooo@+;",
" .Xoooooooooooo@+>u            $%&*=oooooooooooO+-",
" .Xoooooooooooo@+>u            $%&*=oooooooooooO+-",
" .Xoooooooooooo@+>u            $%&*=oooooooooooO+-",
" .Xoooooooooooo@+>u            $%&*=oooooooooooO+-",
" .Xoooooooooooo@+>u            $%&*=oooooooooooO+-",
" .Xoooooooooooo@+>u            $%&*=oooooooooooO+-",
" .Xoooooooooooo@+>u            $%&*=oooooooooooO+-",
" .Xooooooooooo=@+>u           T$%&*5Rooooooooo=O+-",
" .X==oooooooo=5@+>u6        677q%9*55oooo==5=5EWQ;",
" .XooKKKKKKKKoo:+>i        LPPLG%&IooKKKKKdddddA8m",
" 7ASSSSSSSSSSS@f!alZZZZZZZZGH-JwBrg@@SSSSAf~~6uj1r",
"  7eeeeeeeeeeeePl;aaaaaaaaamcMNBVCZeeeeeeg+ll;tsBv",
" 7.************6l>ZQ8llllllazx&cvrubb****ePuuZawBn",
" e@############A88*:6yyyyyyuipias<ed#####XXW^W@/r0",
" .X==oooooooo=5@++@#*       677q%9*55ooooo===5E2w0",
" .Xooooooooooo=O++@#.        678%9*5=oooooooo55*w0",
" .XooooooooooooO++@#.          $%&*=oooooooooo=*90",
" .XooooooooooooO++@#.          $%&*=oooooooooo=*&0",
" .XooooooooooooO++@#.          $%&*=oooooooooo=*1(",
" .XooooooooooooO++@#.          $%&*=oooooooooo=)_r",
" .XooooooooooooO++@#.          $%&*=oooooooooo=O+m",
" .XooooooooooooO++@#.          $%&*=ooooooooooo@+;",
" .Xooooooooooo=`88@#.          $%&*=oooooooooooO+-",
" .Xooooooooooo=Aaa:#.          $%&*=oooooooooooO+-",
" .Xooooooooooo=*wU*#.          $%&*=oooooooooooO+-",
" .Xooooooooooo='<<*#.          $%&*=oooooooooooO+-",
" .Xooooooooooo=*&&*#.          $%&*=oooooooooooO+-",
" .Xooooooooooo=*&&*#.          $%&*=oooooooooooO+-"
};
