/* XPM */
static char *Y29sbGVjdGlibGU_[] = {
/* columns rows colors chars-per-pixel */
"40 40 199 2 ",
"   c #1C0E02",
".  c #351607",
"X  c #250B02",
"o  c #313101",
"O  c #441A0A",
"+  c #5A0C17",
"@  c #71150B",
"#  c #562909",
"$  c #592A17",
"%  c #4C2C10",
"&  c #6A350B",
"*  c #683717",
"=  c #753B18",
"-  c #6A2E07",
";  c #591225",
":  c #6E122B",
">  c #562B29",
",  c #783825",
"<  c #742F30",
"1  c #3B4401",
"2  c #494906",
"3  c #55570A",
"4  c #4F510D",
"5  c #714B14",
"6  c #586607",
"7  c #5C7002",
"8  c #677608",
"9  c #706F0D",
"0  c #4E4F28",
"q  c #734E28",
"w  c #71702D",
"e  c #792C46",
"r  c #7F1549",
"t  c #786447",
"y  c #900C05",
"u  c #A40A03",
"i  c #892B09",
"p  c #A62A0B",
"a  c #8C342E",
"s  c #AF3632",
"d  c #961831",
"f  c #FB0804",
"g  c #FD031C",
"h  c #F2190A",
"j  c #D2320A",
"k  c #FC3404",
"l  c #E82B0F",
"z  c #F13026",
"x  c #E01411",
"c  c #915018",
"v  c #B2551C",
"b  c #886F10",
"n  c #B2651D",
"m  c #864727",
"M  c #8C582B",
"N  c #995829",
"B  c #975D36",
"V  c #8C5633",
"C  c #A75A37",
"Z  c #AC552B",
"A  c #906F2E",
"S  c #A9692A",
"D  c #B9692D",
"F  c #A76636",
"G  c #B37236",
"H  c #FF4400",
"J  c #FF5600",
"K  c #CC7B12",
"L  c #FD6C00",
"P  c #CC7535",
"I  c #D55819",
"U  c #851847",
"Y  c #8D2E4A",
"T  c #B53444",
"R  c #CA195A",
"E  c #D01B5A",
"W  c #FF0045",
"Q  c #CD3350",
"!  c #EF2F4F",
"~  c #D91767",
"^  c #FF0062",
"/  c #FF0079",
"(  c #F00972",
")  c #E30B6C",
"_  c #D12063",
"`  c #8F5145",
"'  c #916C50",
"]  c #A46947",
"[  c #A46952",
"{  c #B17550",
"}  c #8F4A62",
"|  c #B0526C",
" . c #AA5559",
".. c #D3494D",
"X. c #C8744C",
"o. c #C37E6B",
"O. c #E76C55",
"+. c #78861A",
"@. c #759009",
"#. c #7C8C27",
"$. c #2AFF33",
"%. c #1EF13B",
"&. c #62FF15",
"*. c #75F117",
"=. c #68E235",
"-. c #00FF48",
";. c #1CF651",
":. c #2DF154",
">. c #00FF6D",
",. c #6AE143",
"<. c #8F9111",
"1. c #B09D01",
"2. c #94AB09",
"3. c #ACB711",
"4. c #909830",
"5. c #AB8C30",
"6. c #93A32A",
"7. c #FF8102",
"8. c #FF9200",
"9. c #EE8910",
"0. c #C6AC0E",
"q. c #FFA900",
"w. c #FFBB00",
"e. c #D1AA3D",
"r. c #DC9027",
"t. c #BAD210",
"y. c #8CFF00",
"u. c #94F50A",
"i. c #A9FF00",
"p. c #ABF809",
"a. c #ADF112",
"s. c #89EF32",
"d. c #ADC51F",
"f. c #C8D90C",
"g. c #FACF00",
"h. c #FDC91A",
"j. c #D1FF00",
"k. c #CBF202",
"l. c #F3EB00",
"z. c #EEFF00",
"x. c #CEF035",
"c. c #919344",
"v. c #B78552",
"b. c #B5AB51",
"n. c #B78B6B",
"m. c #B49274",
"M. c #BBA177",
"N. c #9C9F5D",
"B. c #DA934A",
"V. c #D7985A",
"C. c #CA8951",
"Z. c #E39C54",
"A. c #E39542",
"S. c #C7AA58",
"D. c #C8B856",
"F. c #F0A64C",
"G. c #C9946C",
"H. c #D99965",
"J. c #C89A76",
"K. c #D29170",
"L. c #E88E6A",
"P. c #D9A979",
"I. c #D8B16F",
"U. c #E9AA68",
"Y. c #F2B76E",
"T. c #B0D150",
"R. c #A1D451",
"E. c #CCC471",
"W. c #F3CB6B",
"Q. c #C7D857",
"!. c #0011FF",
"~. c #2F0CFF",
"^. c #7C04FF",
"/. c #0040FF",
"(. c #0E7EFF",
"). c #FF0097",
"_. c #FF00AE",
"`. c #AB6881",
"'. c #9D00FF",
"]. c #BA00E7",
"[. c #E200C6",
"{. c #00FF8F",
"}. c #00FF9E",
"|. c #00AEFF",
" X c #00FFC3",
".X c #00E7D5",
"XX c #00C6ED",
"oX c #B9BB84",
"OX c #CE9E8E",
"+X c #D6AE8E",
"@X c #E9BB84",
"#X c #DEBFA3",
"$X c #E5BFA9",
"%X c #F1CD94",
"&X c #E3C1A8",
"*X c #ECD1BE",
"=X c #F0CCAE",
"-X c #D8CAAB",
";X c #F5DBC3",
/* pixels */
"(.(.(.(.(.(.(.(.(.(.(.(.(.(.(.(.(.(.(.(.(.(.(.(.(.(.(.(.(.(.(.(.(.(.(.(.(.(.(.(.",
"|.|.|.|.|.|.|.|.|.|.|.|.|.|.|.|.|.|.|.|.|.|.|.|.|.|.|.|.|.|.|.|.|.|.|.|.|.|.|.|.",
"XXXXXXXXXXXXXXXXXXXXXXXXXXXXXXXXXXXXXXXXXXXXXXXXXXXXXXXXXXXXXXXXXXXXXXXXXXXXXXXX",
".X.X.X.X.X.X.X.X.X.X.X.X.X.X.X.X.X.X.X.X.X.X.X.X.X.X.X.X.X.X.X.X.X.X.X.X.X.X.X.X",
" X X X X X X X X X X X X X X X X X X X X X X X X X X X X X X X X X X X X X X X X",
"}.}.}.}.}.}.}.}.}.}.}.}.}.}.}.}.}.}.}.}.}.}.}.}.}.}.}.}.}.}.}.}.}.}.}.}.}.}.}.}.",
"{.{.{.{.{.{.{.{.{.{.{.{.{.{.{.{.{.{.{.{.{.{.{.{.{.{.{.{.{.{.{.{.{.{.{.{.{.{.{.{.",
">.>.>.>.>.>.>.>.>.>.>.>.>.>.>.>.>.>.>.>.>.>.>.>.>.>.>.>.>.>.>.>.>.>.>.>.>.>.>.>.",
"-.-.-.-.-.-.-.-.-.-.-.-.-.-.-.-.-.-.-.-.-.;.;.;.:.:.:.:.;.3.R.:.-.-.-.-.-.-.-.-.",
"$.$.$.$.$.$.$.$.$.$.$.$.$.$.$.$.$.$.$.,.s.T.+XE.U.U.@X%X=.@.#.N.$.$.$.,.$.$.$.$.",
"&.&.&.&.&.&.&.&.&.&.&.&.&.&.&.&.*.0.0.W.A.F.W.W.W.U.v.P.C.b 8 4.R.s.R.s.&.&.&.&.",
"y.y.y.y.y.y.y.y.y.y.y.y.y.y.Q.B.W.F.r.Y.B.r.W.5.S B G A C.9 4.6.b.D.Q.y.y.y.y.y.",
"i.i.i.i.i.i.i.i.i.i.i.x.x.%XF.F.b.9 9 b G D.W.%XD.5.5 & 6 2 8 <.+.@.d.3.a.p.a.p.",
"j.j.j.j.j.j.j.j.k.k.x.%X%XI.e.S.6 2 3 4 9 8 b.b.D.5.A w 1 8 3 +.2.w #.<.8 2.3.d.",
"z.z.z.z.z.z.z.z.f.2.E.W.5.A 9 #.o 3 3   6 0 4.6 w D.5.4 7 6 2 w c.N.oX<.7 0.f.f.",
"l.l.l.l.l.l.l.W.3.@.5.5.<.9 3 6 o 9 3 7 5 5 V M S { 3 4 8 6 # ' w n.-X0 1 1.l.l.",
"g.g.g.g.g.h.W.%X@.@.@.4.@.1 1 1   3 6 6 B N F { { ] A 5 n.[ OXG.N V.#Xt 4 4 1.g.",
"w.w.w.w.h.W.%X@X2.8 #.#.@.1 o c.o 1 6 v.- ] C C.C B n.#X+Xm.F K K q +X[ V * 0.w.",
"q.q.q.q.%X%XI.b.6 1 1 4 o 8 8 #.+.4.q G ' B { { n.' &X*XP.m.G Z.B.J.G.F ` * 1.q.",
"8.8.8.0.%X<.3.2.2 q $ 7 > t % M m.t M w K.X.+XG.$XOX&X;X*X&XG.H.Y.C.n S F n L 8.",
"7.Z.3.2.@.2.@.M.- X . * 9 q ` ' O * C.OXC D K.C.K.OX$X*X*X+XC.P.OX- D N n 7.7.7.",
"L 9.6.6.6 w 6 c   X X q ] [ >   q [ [ Y p p j I D c B m.G.P.G Z B.A B V I L L L ",
"L 0.#.b 0 w 4 q 0 0 O Z a F m i O ` | d u x p p p p y i Z D B.c V.{ > Y  .J J J ",
"P 6.+.OX`.> t ; > O i a o.v n.p @ a | : + @ u u : y u u y <  .> C.o.}  .v H H k ",
";X&Xv.V [ V 5 $ ; ; e > : C c F N = $ r U e ; ; + ; U ; : : } m c C `.Y c k k k ",
"L.Y.Y.$XH.B N Y < m q a = ] & N * $ $   C a < $ , < } | U U e , * = U Y D X.k f ",
"f z L.@XU.V.V.F q & * $ O q $ c c q , * = i & & @ # - <  .` , ] , $ = m l z h f ",
"g g g z I.Z.U.B.C.S F v.M . % . = m # ' . . O . & * M m [ { C J.m.B c x g g j g ",
"W W W W W ! X.O.H.P G D C.B.H.C.U.Z.Z.A.Z.B.V.P C F ] ` ] [ G.H.L.K.! W W W W W ",
"^ ^ ^ ^ ^ ^ ^ ^ ^ Q T Q Q s ..Z C C X.D Z S N m m m s Z ......_ ^ ^ ^ ^ ^ ^ ^ ^ ",
"/ / / / / / / / / / / / / / / ) ~ ~ ~ E E _ R R ~ _ ( / / / )./ / / / / / / / / ",
").).).).).).).).).).).).).).).).).).).).).).).).).).).).).).).).).).).).).).).).",
"_._._._._._._._._._._._._._._._._._._._._._._._._._._._._._._._._._._._._._._._.",
"[.[.[.[.[.[.[.[.[.[.[.[.[.[.[.[.[.[.[.[.[.[.[.[.[.[.[.[.[.[.[.[.[.[.[.[.[.[.[.[.",
"].].].].].].].].].].].].].].].].].].].].].].].].].].].].].].].].].].].].].].].].",
"'.'.'.'.'.'.'.'.'.'.'.'.'.'.'.'.'.'.'.'.'.'.'.'.'.'.'.'.'.'.'.'.'.'.'.'.'.'.'.'.",
"^.^.^.^.^.^.^.^.^.^.^.^.^.^.^.^.^.^.^.^.^.^.^.^.^.^.^.^.^.^.^.^.^.^.^.^.^.^.^.^.",
"~.~.~.~.~.~.~.~.~.~.~.~.~.~.~.~.~.~.~.~.~.~.~.~.~.~.~.~.~.~.~.~.~.~.~.~.~.~.~.~.",
"!.!.!.!.!.!.!.!.!.!.!.!.!.!.!.!.!.!.!.!.!.!.!.!.!.!.!.!.!.!.!.!.!.!.!.!.!.!.!.!.",
"/./././././././././././././././././././././././././././././././././././././././."
};
