/* XPM */
static char *ZXhpdA__[] = {
/* columns rows colors chars-per-pixel */
"40 40 41 1 ",
"  c #010101",
". c red",
"X c #FF1400",
"o c #FF001D",
"O c #FF3000",
"+ c #FF4400",
"@ c #FF5600",
"# c #FF6E00",
"$ c #FF0045",
"% c #FF0062",
"& c #FF0079",
"* c #2AFF33",
"= c #62FF15",
"- c #00FF48",
"; c #00FF6D",
": c #FF8000",
"> c #FF9200",
", c #FFA900",
"< c #FFBB00",
"1 c #8CFF00",
"2 c #A9FF00",
"3 c #FACF00",
"4 c #D1FF00",
"5 c #F3EB00",
"6 c #EEFF00",
"7 c #0011FF",
"8 c #2F0CFF",
"9 c #7C04FF",
"0 c #0040FF",
"q c #0E7EFF",
"w c #FF0097",
"e c #FF00AE",
"r c #9D00FF",
"t c #BA00E7",
"y c #E200C6",
"u c #00FF8F",
"i c #00FF9E",
"p c #00AEFF",
"a c #00FFC3",
"s c #00E7D5",
"d c #00C6ED",
/* pixels */
"qqqqqqqqqqqqqqqqqqqqqqqqqqqqqqqqqqqqqqqq",
"pppppppppppppppppppppppppppppppppppppppp",
"dddddddddddddddddddddddddddddddddddddddd",
"ssssssssssssssssssssssssssssssssssssssss",
"aaaaaaaaaaaaaaaaaaaaaaaaaaaaaaaaaaaaaaaa",
"iiiiiiiiiiiiiiiiiiiiiiiiiiiiiiiiiiiiiiii",
"uuuuuuuuuuuuuuuuuuuuuuuuuuuuuuuuuuuuuuuu",
";;;;;;;;;;;;;;;;;;;;;;;;;;;;;;;;;;;;;;;;",
"----------------------------------------",
"****************************************",
"========================================",
"1111111111111111     11          1111111",
"222222222222222     222    2     2222222",
"44444444444444     4444   44     4444444",
"6666666666666     66666  666     6666666",
"555555555555     555555 5555     5555555",
"33333333333     33333333333     33333333",
"<<<<<<<<<<     <<<<<<<<<<<     <<<<<<<<<",
",,,,,,,,,     ,,,,,,,,,,,     ,,,,,,,,,,",
">>>>>>>>     >>>>>>>>>>>     >>>>>>>>>>>",
":::::::     :::::::::::     ::::::::::::",
"#######              ##     #### #######",
"@@@@@@@              @@     @@@  @@@@@@@",
"+++++++              ++     ++   +++++++",
"OOOOOOOOOOOOOOOOO    OO     O    OOOOOOO",
"XXXXXXXXXXXXXXXXX    XX          XXXXXXX",
".................    ...................",
"ooooooooooooooooo    ooooooooooooooooooo",
"$$$$$$$$$$$$$$$$$    $$$$$$$$$$$$$$$$$$$",
"%%%%%%%%%%%%%%%%%%%%%%%%%%%%%%%%%%%%%%%%",
"&&&&&&&&&&&&&&&&&&&&&&&&&&&&&&&&&&&&&&&&",
"wwwwwwwwwwwwwwwwwwwwwwwwwwwwwwwwwwwwwwww",
"eeeeeeeeeeeeeeeeeeeeeeeeeeeeeeeeeeeeeeee",
"yyyyyyyyyyyyyyyyyyyyyyyyyyyyyyyyyyyyyyyy",
"tttttttttttttttttttttttttttttttttttttttt",
"rrrrrrrrrrrrrrrrrrrrrrrrrrrrrrrrrrrrrrrr",
"9999999999999999999999999999999999999999",
"8888888888888888888888888888888888888888",
"7777777777777777777777777777777777777777",
"0000000000000000000000000000000000000000"
};
