/* XPM */
static char *Zmxvb3I_[] = {
/* columns rows colors chars-per-pixel */
"40 40 40 1 ",
"  c red",
". c #FF1400",
"X c #FF001D",
"o c #FF3000",
"O c #FF4400",
"+ c #FF5600",
"@ c #FF6E00",
"# c #FF0045",
"$ c #FF0062",
"% c #FF0079",
"& c #2AFF33",
"* c #62FF15",
"= c #00FF48",
"- c #00FF6D",
"; c #FF8000",
": c #FF9200",
"> c #FFA900",
", c #FFBB00",
"< c #8CFF00",
"1 c #A9FF00",
"2 c #FACF00",
"3 c #D1FF00",
"4 c #F3EB00",
"5 c #EEFF00",
"6 c #0011FF",
"7 c #2F0CFF",
"8 c #7C04FF",
"9 c #0040FF",
"0 c #0E7EFF",
"q c #FF0097",
"w c #FF00AE",
"e c #9D00FF",
"r c #BA00E7",
"t c #E200C6",
"y c #00FF8F",
"u c #00FF9E",
"i c #00AEFF",
"p c #00FFC3",
"a c #00E7D5",
"s c #00C6ED",
/* pixels */
"0000000000000000000000000000000000000000",
"iiiiiiiiiiiiiiiiiiiiiiiiiiiiiiiiiiiiiiii",
"ssssssssssssssssssssssssssssssssssssssss",
"aaaaaaaaaaaaaaaaaaaaaaaaaaaaaaaaaaaaaaaa",
"pppppppppppppppppppppppppppppppppppppppp",
"uuuuuuuuuuuuuuuuuuuuuuuuuuuuuuuuuuuuuuuu",
"yyyyyyyyyyyyyyyyyyyyyyyyyyyyyyyyyyyyyyyy",
"----------------------------------------",
"========================================",
"&&&&&&&&&&&&&&&&&&&&&&&&&&&&&&&&&&&&&&&&",
"****************************************",
"<<<<<<<<<<<<<<<<<<<<<<<<<<<<<<<<<<<<<<<<",
"1111111111111111111111111111111111111111",
"3333333333333333333333333333333333333333",
"5555555555555555555555555555555555555555",
"4444444444444444444444444444444444444444",
"2222222222222222222222222222222222222222",
",,,,,,,,,,,,,,,,,,,,,,,,,,,,,,,,,,,,,,,,",
">>>>>>>>>>>>>>>>>>>>>>>>>>>>>>>>>>>>>>>>",
"::::::::::::::::::::::::::::::::::::::::",
";;;;;;;;;;;;;;;;;;;;;;;;;;;;;;;;;;;;;;;;",
"@@@@@@@@@@@@@@@@@@@@@@@@@@@@@@@@@@@@@@@@",
"++++++++++++++++++++++++++++++++++++++++",
"OOOOOOOOOOOOOOOOOOOOOOOOOOOOOOOOOOOOOOOO",
"oooooooooooooooooooooooooooooooooooooooo",
"........................................",
"                                        ",
"XXXXXXXXXXXXXXXXXXXXXXXXXXXXXXXXXXXXXXXX",
"########################################",
"$$$$$$$$$$$$$$$$$$$$$$$$$$$$$$$$$$$$$$$$",
"%%%%%%%%%%%%%%%%%%%%%%%%%%%%%%%%%%%%%%%%",
"qqqqqqqqqqqqqqqqqqqqqqqqqqqqqqqqqqqqqqqq",
"wwwwwwwwwwwwwwwwwwwwwwwwwwwwwwwwwwwwwwww",
"tttttttttttttttttttttttttttttttttttttttt",
"rrrrrrrrrrrrrrrrrrrrrrrrrrrrrrrrrrrrrrrr",
"eeeeeeeeeeeeeeeeeeeeeeeeeeeeeeeeeeeeeeee",
"8888888888888888888888888888888888888888",
"7777777777777777777777777777777777777777",
"6666666666666666666666666666666666666666",
"9999999999999999999999999999999999999999"
};
