/* XPM */
static char *aHA_[] = {
/* columns rows colors chars-per-pixel */
"40 40 13 1 ",
"  c black",
". c #512712",
"X c #562A14",
"o c #5C2E17",
"O c #61331C",
"+ c #67351C",
"@ c #653720",
"# c #703E25",
"$ c #75432A",
"% c #7A482F",
"& c #AB0000",
"* c #D70000",
"= c white",
/* pixels */
"%%%%%%%@..%%%%%%%@..%%%%%%%@..%%%%%%%@..",
"%%%%%%%@..%%%%%%%@..%%%%%%%@..%%%%%%%@..",
"%%$####O..%%$####O..%%$####O..%%$####O..",
"%%#++++o..%%#++++o..%%#++++o..%%#++++o..",
"%%#++++o..%%#++++o..%%#++++o..%%#++++o..",
"%%#++++o..%%#++++o..%%#++++o..%%#++++o..",
"%%#++++o..%%#++++o..%%#++++o..%%#++++o..",
"@@OooooX..@@OooooX..@@OooooX..@@OooooX..",
"........................................",
"........................................",
"%%%%%%%@..%%%%    ..%%    %@..%%%%%%%@..",
"%%%%%%%@..%%%%    ..%%    %@..%%%%%%%@..",
"%%$####O..%%  ====    ==**  ..%%$####O..",
"%%#++++o..%%  ====    ==**  ..%%#++++o..",
"%%#++++o..  ==******==******  %%#++++o..",
"%%#++++o..  ==******==******  %%#++++o..",
"%%#++++o..  ****************  %%#++++o..",
"@@OooooX..  ****************  @@OooooX..",
"..........  ****************  ..........",
"..........  ****************  ..........",
"%%%%%%%@..  &&************&&  %%%%%%%@..",
"%%%%%%%@..  &&************&&  %%%%%%%@..",
"%%$####O..%%  &&********&&  ..%%$####O..",
"%%#++++o..%%  &&********&&  ..%%#++++o..",
"%%#++++o..%%#+  &&****&&  +o..%%#++++o..",
"%%#++++o..%%#+  &&****&&  +o..%%#++++o..",
"%%#++++o..%%#+++  &&&&  +++o..%%#++++o..",
"@@OooooX..@@Oooo  &&&&  oooX..@@OooooX..",
"..................    ..................",
"..................    ..................",
"%%%%%%%@..%%%%%%%@..%%%%%%%@..%%%%%%%@..",
"%%%%%%%@..%%%%%%%@..%%%%%%%@..%%%%%%%@..",
"%%$####O..%%$####O..%%$####O..%%$####O..",
"%%#++++o..%%#++++o..%%#++++o..%%#++++o..",
"%%#++++o..%%#++++o..%%#++++o..%%#++++o..",
"%%#++++o..%%#++++o..%%#++++o..%%#++++o..",
"%%#++++o..%%#++++o..%%#++++o..%%#++++o..",
"@@OooooX..@@OooooX..@@OooooX..@@OooooX..",
"........................................",
"........................................"
};
