/* XPM */
static char *bW9uc3Rlcg__[] = {
/* columns rows colors chars-per-pixel */
"40 40 52 1 ",
"  c black",
". c red",
"X c #FF1400",
"o c #FF001D",
"O c #FF3000",
"+ c #FF4400",
"@ c #FF5600",
"# c #FF6E00",
"$ c #FF6918",
"% c #FF0045",
"& c #FF0062",
"* c #FF0079",
"= c #2AFF33",
"- c #62FF15",
"; c #00FF48",
": c #00FF6D",
"> c #FF8000",
", c #FF9200",
"< c #FF8C18",
"1 c #FF9F18",
"2 c #FFA900",
"3 c #FFBB00",
"4 c #8CFF00",
"5 c #A9FF00",
"6 c #FACF00",
"7 c #D1FF00",
"8 c #F3EB00",
"9 c #EEFF00",
"0 c #0011FF",
"q c #2F0CFF",
"w c #7C04FF",
"e c #0040FF",
"r c #0E7EFF",
"t c #FF0097",
"y c #FF00AE",
"u c #9D00FF",
"i c #BA00E7",
"p c #E200C6",
"a c #00FF8F",
"s c #00FF9E",
"d c #00AEFF",
"f c #00FFC3",
"g c #00E7D5",
"h c #00C6ED",
"j c gray56",
"k c #9D9D9D",
"l c #AEAEAE",
"z c #C3C3C3",
"x c gray82",
"c c gray87",
"v c #EFEFEF",
"b c white",
/* pixels */
"rrrrrrrrrrrrrrrrrrrrrrrrrrrrrrrrrrrrrrrr",
"dddddddddddddddddddddddddddddddddddddddd",
"hhhhhhhhhhhhhhhhhhhhhhhhhhhhhhhhhhhhhhhh",
"gggggggggggggggggggggggggggggggggggggggg",
"ffffffffffffffffffffffffffffffffffffffff",
"ssssssssssssssssssssssssssssssssssssssss",
"aaaaaaaaaaaaaa    aaaaaaaaaaaaaaaaaaaaaa",
"::::::::::::::    ::::::::::::::::::::::",
";;;;;;;;;;;;  <<11    ;;;;;;;;;;;;;;;;;;",
"============  <<11    ==================",
"----------  11$$$$$$zz  ----------------",
"4444444444  11$$$$$$zz  4444444444444444",
"5555555555  $$$$zzbbcc  5555555555555555",
"7777777777  $$$$zzbbcc  7777777777777777",
"9999999999  zzzz  ccbb  999999    999999",
"8888888888  zzzz  ccbb  888888    888888",
"66666666  11<<bb  bbbbxx  66  ccbb  6666",
"33333333  11<<bb  bbbbxx  33  ccbb  3333",
"2222222222  llbbbbbbbbbbxx  ccbbbb  2222",
",,,,,,,,,,  llbbbbbbbbbbxx  ccbbbb  ,,,,",
">>>>>>>>  zzccbbccbbvvbbbb  bbbb    >>>>",
"########  zzccbbccbbvvbbbb  bbbb    ####",
"@@@@@@@@  zzbbccbbccbbbbbbbbbb  bb  @@@@",
"++++++++  zzbbccbbccbbbbbbbbbb  bb  ++++",
"OOOOOOOO  kkzzcckkbbccbbccbbcccczz  OOOO",
"XXXXXXXX  kkzzcckkbbccbbccbbcccczz  XXXX",
"..........  llzzcckkbbccbbccjjjj  ......",
"oooooooooo  llzzcckkbbccbbccjjjj  oooooo",
"%%%%%%%%%%  kkllzzllkkkkjjjjlljj  %%%%%%",
"&&&&&&&&&&  kkllzzllkkkkjjjjlljj  &&&&&&",
"************    kkllkkzzllllll  ********",
"tttttttttttt    kkllkkzzllllll  tttttttt",
"yyyyyyyyyyyyyyyy  11  ll  11  yyyyyyyyyy",
"pppppppppppppppp  11  ll  11  pppppppppp",
"iiiiiiiiiiiiii      ii      iiiiiiiiiiii",
"uuuuuuuuuuuuuu      uu      uuuuuuuuuuuu",
"wwwwwwwwwwwwwwwwwwwwwwwwwwwwwwwwwwwwwwww",
"qqqqqqqqqqqqqqqqqqqqqqqqqqqqqqqqqqqqqqqq",
"0000000000000000000000000000000000000000",
"eeeeeeeeeeeeeeeeeeeeeeeeeeeeeeeeeeeeeeee"
};
