/* XPM */
static char *d565ac1b78934daa91913e2da649ed8bT7NU7KAU2O45b4Yi[] = {
/* columns rows colors chars-per-pixel */
"50 50 231 2 ",
"   c #0E191A",
".  c #121D1D",
"X  c #34381E",
"o  c #121E20",
"O  c #152325",
"+  c #182828",
"@  c #192A2C",
"#  c #172F31",
"$  c #1D2E30",
"%  c #1F3133",
"&  c #1E383B",
"*  c #28342D",
"=  c #363A28",
"-  c #213436",
";  c #283737",
":  c #2D3436",
">  c #2E3C34",
",  c #223739",
"<  c #243A3C",
"1  c #2A3C3B",
"2  c #323334",
"3  c #313E36",
"4  c #323C39",
"5  c #3C3B38",
"6  c #443F22",
"7  c #315513",
"8  c #3E412C",
"9  c #344135",
"0  c #3C4433",
"q  c #33423C",
"w  c #3F463C",
"e  c #6B561E",
"r  c #735C1E",
"t  c #44432A",
"y  c #474529",
"u  c #4B4A2D",
"i  c #564D26",
"p  c #534E2A",
"a  c #5B5228",
"s  c #484736",
"d  c #564D39",
"f  c #455334",
"g  c #56523B",
"h  c #5A553E",
"j  c #635423",
"k  c #685724",
"l  c #6C5923",
"z  c #6A5C29",
"x  c #735D22",
"c  c #785F20",
"v  c #66593F",
"b  c #537930",
"n  c #766224",
"m  c #7B6423",
"M  c #776529",
"N  c #7A6938",
"B  c #283F43",
"V  c #2F3B57",
"C  c #463D75",
"Z  c #26474A",
"A  c #364042",
"S  c #294C52",
"D  c #285255",
"F  c #2B5A5B",
"G  c #3A5D56",
"H  c #32655F",
"J  c #3D5A6C",
"K  c #376763",
"L  c #3B766B",
"P  c #424344",
"I  c #4A4845",
"U  c #4B4B4C",
"Y  c #514E47",
"T  c #4D5047",
"R  c #555445",
"E  c #494852",
"W  c #4C5455",
"Q  c #535353",
"!  c #575557",
"~  c #5A5A5C",
"^  c #645A46",
"/  c #6A5D44",
"(  c #4C6758",
")  c #6D6247",
"_  c #77684B",
"`  c #796D53",
"'  c #7C725B",
"]  c #4F516B",
"[  c #464475",
"{  c #46786A",
"}  c #567668",
"|  c #5B7C72",
" . c #656464",
".. c #6C6C6C",
"X. c #777469",
"o. c #777376",
"O. c #846B25",
"+. c #836C29",
"@. c #866D28",
"#. c #87712A",
"$. c #8B742B",
"%. c #947B2D",
"&. c #967C2D",
"*. c #8C7736",
"=. c #947C36",
"-. c #826E4B",
";. c #86714E",
":. c #957D45",
">. c #877957",
",. c #947C57",
"<. c #897A65",
"1. c #608935",
"2. c #759647",
"3. c #468873",
"4. c #45877B",
"5. c #6B8779",
"6. c #9B812F",
"7. c #9C8432",
"8. c #988539",
"9. c #A58B33",
"0. c #A38A34",
"q. c #A48D39",
"w. c #A7903A",
"e. c #AB943C",
"r. c #AE983F",
"t. c #B09A3F",
"y. c #9B8349",
"u. c #94825C",
"i. c #9B8558",
"p. c #86955D",
"a. c #A79645",
"s. c #AD9A43",
"d. c #B29E44",
"f. c #A48C52",
"g. c #A48A57",
"h. c #B4A146",
"j. c #B5A34A",
"k. c #B8A74C",
"l. c #BAA94E",
"z. c #B6A855",
"x. c #BDAD52",
"c. c #BFB055",
"v. c #948D69",
"b. c #A28D67",
"n. c #A68D68",
"m. c #AB936B",
"M. c #B6966B",
"N. c #B79C75",
"B. c #9DB16D",
"V. c #B6AB71",
"C. c #C0B256",
"Z. c #C3B65A",
"A. c #C4B85C",
"S. c #C2B667",
"D. c #C6BB64",
"F. c #C6BC69",
"G. c #C8BE6B",
"H. c #C6AE7A",
"J. c #C9C06E",
"K. c #CBC274",
"L. c #CDC57B",
"P. c #3A3794",
"I. c #3F3FA2",
"U. c #433F90",
"Y. c #504C91",
"T. c #56688E",
"R. c #6A7893",
"E. c #4D53AA",
"W. c #4A54BB",
"Q. c #625CB1",
"!. c #5B68A6",
"~. c #5F6BB3",
"^. c #6766A9",
"/. c #6474A5",
"(. c #464AC4",
"). c #4D55C3",
"_. c #5055C2",
"`. c #5063DC",
"'. c #6074D6",
"]. c #5C79ED",
"[. c #4B9181",
"{. c #6A9282",
"}. c #769587",
"|. c #728995",
" X c #6687ED",
".X c #878686",
"XX c #899C94",
"oX c #A09F9D",
"OX c #89A699",
"+X c #90AD9E",
"@X c #B7A88B",
"#X c #B4B096",
"$X c #958FA9",
"%X c #A5A5A4",
"&X c #AFB2AB",
"*X c #B8B6B6",
"=X c #C5AA83",
"-X c #C9B589",
";X c #CDBB91",
":X c #D9BA94",
">X c #BBC489",
",X c #CAC684",
"<X c #CFC882",
"1X c #D0CA84",
"2X c #D2CC8B",
"3X c #D6CA97",
"4X c #CDD299",
"5X c #D3D298",
"6X c #DBCDA8",
"7X c #CAC6BD",
"8X c #E4CAA5",
"9X c #E5D3AB",
"0X c #E6D8AD",
"qX c #EBD8B2",
"wX c #F6DFB8",
"eX c #E4E0AE",
"rX c #EAE1B9",
"tX c #F3E5BA",
"yX c #F7ECBF",
"uX c #B2AECB",
"iX c #DAD2C5",
"pX c #DCDADA",
"aX c #E2DCC8",
"sX c #EFE5C8",
"dX c #FCECC3",
"fX c #F6E9CA",
"gX c #FEF2C6",
"hX c #FFF3C9",
"jX c #E8E4DC",
"kX c #F4E9D2",
"lX c #F0EEEA",
/* pixels */
"$ % , < < < < < < < < < < < q % # + % , # @ * y j 6 * $ $ $ $ @ . O - < < < < < < < < < < < < % @ + ",
"$ % , < < < < < < < < < & 9 0 t 8 8 t y 8 9 * 8 j j y * $ $ $ X X X t y 0 1 < < < < < < < < < - @ O ",
"$ % , < < < < < < < < < < 0 p k r c n m x p 8 8 e c l i * * = p M m c n k s 1 , < < < < < < < - @ O ",
"$ % , < < < < < < < < & < < 9 t e m %.q.a.8.l e e O.$.M e i a 8.a.q.6.6.%.M p 9 < < < < < < < & @ O ",
"$ % , < < < < < < < < 1 0 0 t y j c $.q.h.a.7.$.$.7.e.8.#.#.8.a.h.q.6.%.#.z t q < < < < < < < & @ + ",
"$ % & < < < < < & q 1 0 a x n c c n m $.q.h.x.j.r.h.c.j.r.j.x.h.q.%.m n z 0 q q q < 1 < < < < % @ O ",
"$ % , < < < < 1 f p i z m 6.6.7.w.a.a.z.V.J.A.C.c.S.L.F.c.c.A.J.V.z.a.8.#.z i i i a u 9 < < < & @ O ",
"@ % , < < < 9 u z m O.$.q.t.t.h.c.J.J.K.L.L.J.Z.D.L.2X<XJ.D.D.K.<XK.D.k.q.8.#.+.m m z f 9 , < % @ + ",
"$ - - < < 9 u z %.7.9.e.j.C.Z.C.D.G.<X<XG.A.A.Z.A.K.2X5X2XK.D.Z.J.L.<XK.Z.c.k.e.9.9.6.M p q < % @ + ",
"$ - , < < < 9 p z #.#.%.w.k.C.J.L.2X2X1XG.Z.Z.A.A.G.J.K.K.D.Z.Z.D.<X2X2XL.G.Z.x.l.l.s.8.+.a t ; @ O ",
"$ % , < < < & 9 p r c #.7.d.x.J.L.2X2X1XD.A.A.A.A.A.Z.Z.Z.A.Z.A.D.L.5X2X<XG.c.c.c.j.h.7.$.z u > + O ",
"$ % , < < < < 9 p c $.w.j.C.Z.A.D.L.2X<XD.A.A.Z.A.A.A.A.A.A.A.A.J.L.2XK.D.A.c.d.7.#.m M a 0 1 - O   ",
"$ % - < < 1 0 p M %.e.k.c.D.A.A.Z.D.K.L.L.G.D.Z.A.G.K.L.K.J.D.J.L.L.J.D.A.A.c.l.a.%.m x e u 0 - O   ",
"@ - , < < 3 u n %.r.c.c.c.c.c.C.Z.Z.A.J.2XG.S.Z.G.L.2X5X1XJ.D.K.<XJ.A.A.A.c.Z.c.c.d.7.#.m c a = O   ",
"$ $ , , < > i M q.c.c.c.k.r.r.h.x.A.A.A.D.c.k.c.L.5X2X<XG.x.d.x.A.D.A.A.c.h.h.c.A.c.h.9.6.6.#.k X . ",
"$ $ - - > u M y.z.c.c.k.e.w.r.j.C.A.Z.Z.l.e.8.f.G.<XL.S.j.7.6.q.l.c.A.A.c.k.h.j.h.a.e.w.w.w.7.#.l 6 ",
"$ @ @ > y M 8.z.C.k.s.9.9.s.C.Z.A.A.C.k.w.%.O.8.z.A.c.j.7.%.#.=.w.j.C.A.A.Z.l.d.6.@.@.6.0.0.0.7.#.l ",
"$ * t a e n #.$.*.$.@.@.&.e.l.A.A.c.h.7.@.r c 7.x.l.s.6.*.g.V.y.$.7.d.C.A.A.x.r.9.&.%.@.O.O.O.m j X ",
"$ - 0 i a j k e e r O.@.9.j.C.C.x.s.0.8.y.*.+.=.s.e.6.=.g.-X8X=Xg.=.0.s.l.A.C.h.t.w.6.$.m r e i =   ",
"@ % < 1 1 9 p l r O.&.9.C.Z.C.C.r.&.+.i.@XN.*.#.6.%.*.m.8X0X9X9X-Xi.+.%.r.l.C.A.l.e.9.9.$.n i > O . ",
"$ - - < < 1 p x @.&.9.t.C.C.h.w.$.x a ^ X.' h j M a.H.9X0X#X<.<.X.^ d z $.9.l.Z.h.7.&.7.&.m p : @ O ",
"$ - - < < 4 p n &.&.9.9.d.C.9.&.:.;...~ P E  .>.i.-XtXhXrX#X..E P ~ ' ;.:.=.q.d.a.#.O.&.&.m i > @ O ",
"@ - < < , 4 p c &.&.$.@.9.&.$.:.=X6X7X.XE  .&X7XrXyXgXgXfXaX&X .U .X7X9X=X:.$.&.7.#.@.&.&.m p > @ O ",
"@ - - < , 4 p r O.=.f.g.:.:.,.N.8XsXjXoXQ ! oXiXfXgXgXgXfXiX%X~ Y $XpXfX8X=Xg.:.:.g.f.=.O.l p > @ + ",
"- $ , < < 9 p l z N m.N.,.,.=X8XqXsXjX&XW w X.&XrXgXgXgXrX&XX.T W %XjXkXqX8X=X,.,.N.m.N k l i > @ O ",
"@ - , < < 3 p j u s ) ;.` ,.H.8XqXkXlX&X( = f v.eXhXgXgX0Xv.0 9 T &XlXfX9X8X=X,.` ;.) f u j i > @ O ",
"$ $ , < < 1 0 s 9 1 w h ) ,.N.:X9XfXkX>Xb 7 7 p.eXhXhXhXeXp.7 7 b #XkXdX9X:XN.,.) h w q 3 s 0 ; @ + ",
"$ - , < < < < < < < < q R ;.n.H.8XwXrX,X2.b 1.B.eXdXgXgXeXB.1.1.2.>XtXtX8XH.M.;.R q < < < < < - @ O ",
"@ % & < < < < < < < < < B Y ;.,.-X8XwX9X5X4X5X0XyXgXgXgXyXeX5X4X8X0XwX9X;Xn._ R q 1 < < < < < - @ O ",
"% % - < < < < < < < < , : 5 I _ n.=X:X9XwXtXhXdXdXdXyXdXyXyXhXyXwX8X:X=Xn._ d 4 ; < < < < < < , @ O ",
"$ - < < < < < < < < < < 2 2 2 s / ,.M.=X:X8X8X0X9X9X9X9X9X9X9X3X:X=XM.,./ s 2 2 : < < < B < < - @ + ",
"@ % - < < < < < < < < A E Q P 5 d / ;.,.,.b.b.b.b.n.b.b.n.n.b.b.,.,.;./ Y 5 P U W A < < , < , ; @ O ",
"$ - - - - - - - - , B ! o..X.X..Y I ^ ) ) / ^ v v v v v v v v / / ) ^ Y Q  ..X.XR.! B - $ $ $ @ O O ",
"$ $ - @ % % @ - % 4 ! .X*XpXjX*Xo.I Y ! Q Q I I I I I I I I I Y ! ! Y I ..*XjXpX*Xv.! : @ O o .   . ",
"$ $ $ - % % % , 0 ^ <.@XpXlXlXuX/.[ E T Q ! ~ ~ ~ ~ ~ ~ ~ ~ ~ ~ W I E [ ^.uXlXlXpX@X<.^ s $ O O .   ",
"$ $ - , , < , q h ;.M.:XkXlXjXuXQ.U.[ ] Q ~  ............... .~ Q ] [ U.Q.uXpXlXkX:XN.;.R 4 - $ o   ",
"$ - , < < < < q R >.;XtXkXsXiX$XY.I.W.E.] ! Q  .....X..... .~ Q ] !.(.I.Y.$XiXaXhXtX;Xu.h q 1 % O   ",
"@ - , < < < < q h <.3XhXhX9X@Xo.C P.(.).~.!././.T.Y.[ Y.Y.^./.~.E.).(.I.U.o.@X6XdXfX3Xu.h q 1 % O   ",
"$ $ , < < < < 4 g >.=X9X9X=X<.Q C P.E.(.`.]. X'.W.Y.U.U.E.'. X].`.W.E.P.C ! ,.=X6X0X-X>.g q B % o   ",
"$ - , < < < < 1 4 d ` u.u.-.h B Z J T.T.W.(._.~.R.|.|.|.|.~._.(.W.!.{ J V 5 d ` u.u.` Y 1 1 & % O   ",
"$ % , < , B B , ; 2 s d d s 5 : S K | R./.!.!.R.}.5.}.}.}.R.!.~./.R.| K S 1 2 s g d s 2 : : < % O   ",
"$ % , < , , , , : 2 2 2 2 2 2 B S G | }.XXOXXX}.5.5.5.5.5.}.}.+XOX}.| G S 4 2 2 2 2 2 2 : , B % @ o ",
"$ % , < B , < , : 2 2 2 2 2 2 4 S G { 5.OX+XOX5.} } } } } 5.}.+XOX5.} G S 1 2 2 2 2 2 2 : < < & @ O ",
"$ % , < < < < < , : 2 2 : : : : B S G { 5.}.5.3.( W G G ( | {.}.}.} G S Z 1 : : : 2 : : : , < - @ O ",
"$ % , < < < < < , ; : 2 ; , , - # & D H 3.3.L K F D D D F K L 3.{ H D Z < < < < ; : : : < < < - @ + ",
"$ % , < < < < < B B , , B , B - + # S H 3.[.4.L F Z & Z F L [.[.4.K D < < < < < < < < < < < < - @ O ",
"$ % , < < < < < , , < < < < , % O # Z H 3.[.4.L D & & & S K [.[.4.H Z & < < < < < < < < < < < & @ O ",
"$ % , < < < < < , B < < < < B $ o o & Z D F F S & # # # & Z D F D & & < < < < < < < < < < < < - @ O ",
"$ % , < < < B , < < < < < < < - o O % B & < B & $ $ $ $ $ & & & # + % & B < < < < < < < < < < & @ O ",
"$ % , , < < < < < < < < < < < - O O $ , $ $ $ # $ $ $ $ $ # $ + o o & & & < < < < < < < < < < & @ O "
};
