/* XPM */
static char *cGxheWVyYTI_[] = {
/* columns rows colors chars-per-pixel */
"40 40 47 1 ",
"  c black",
". c #585858",
"X c #6F6F6F",
"o c red",
"O c #FF1400",
"+ c #FF001D",
"@ c #FF3000",
"# c #FF4400",
"$ c #FF5600",
"% c #FF6E00",
"& c #FF0045",
"* c #FF0062",
"= c #FF0079",
"- c #996344",
"; c #2AFF33",
": c #62FF15",
"> c #00FF48",
", c #00FF6D",
"< c #FF8000",
"1 c #FF9200",
"2 c #FFA900",
"3 c #FFBB00",
"4 c #8CFF00",
"5 c #A9FF00",
"6 c #FACF00",
"7 c #D1FF00",
"8 c #F3EB00",
"9 c #EEFF00",
"0 c #0011FF",
"q c #2F0CFF",
"w c #7C04FF",
"e c #0040FF",
"r c #0E7EFF",
"t c #FF0097",
"y c #FF00AE",
"u c #9D00FF",
"i c #BA00E7",
"p c #E200C6",
"a c #D574D6",
"s c #00FF8F",
"d c #00FF9E",
"f c #00AEFF",
"g c #00FFC3",
"h c #00E7D5",
"j c #00C6ED",
"k c #FFAEC8",
"l c white",
/* pixels */
"rrrrrrrrrrrrrrrrrrrrrrrrrrrrrrrrrrrrrrrr",
"ffffffffffffffffffffffffffffffffffffffff",
"jjjjjjjjjjjjjjjjjjjjjjjjjjjjjjjjjjjjjjjj",
"hhhhhhhhhhhhhhhhhhhhhhhhhhhhhhhhhhhhhhhh",
"gggggggggggggggggggggggggggggggggggggggg",
"dddddddddddddddddddddddddddddddddddddddd",
"ssssssssssssssssssssssssssssssssssssssss",
",,,,,,,,,,,,,,,,,,,,,,,,,,,,,,,,,,,,,,,,",
">>>>>>>>>>>>>>>>>>>>>>>>>>>>>>>>>>>>>>>>",
";;;;;;;;;;;;;;;;;;;;;;;;;;;;;;;;;;;;;;;;",
":::::::::::                 ::::::::::::",
"4444444444 ----------------- 44444444444",
"555555555 ---kkkkkkkkkkkkk--- 5555555555",
"777777777 --kkkkkkakkkkkkkk-- 7777777777",
"999999999 -kakkkkkkkkkakkkkk- 9999999999",
"88888  88 -kkkk  kkkkkkkkkkk- 8888888888",
"6666 XX 6 -kkk XX kkkkkkkkkk- 6666666666",
"3333 XXX  -kk XXX kkkkkkakkk- 3333333333",
"2222 XXXX    XXXX kakkkkkkkk- 2222222222",
"1111 XXXXXXXXXXXX kkkkkkkkkk- 1111111111",
"<<< XXXXXXXXXXXXXX kkkkkkkak-  <<<<<<<<<",
"%%% XX lXXXXX lXXX kkkkakkkk-     %%%%%%",
"$$$ XX  XX XX  XXX kkkkkkkkk- ....  $$$$",
"### kkXXXXXXXXXkkX kkkkkkkkk-   ... ####",
"@@@ kkX XX XX XkkX kkakkkkk-- @    @@@@@",
"OOOO XX       XXX kkkkkkkk--- OOOOOOOOOO",
"ooooo XXXXXXXXXX -----------  oooooooooo",
"++++++                      . ++++++++++",
"&&&&&& .. &&& .. &&&& .. & .. &&&&&&&&&&",
"******   ****   *****   ***   **********",
"========================================",
"tttttttttttttttttttttttttttttttttttttttt",
"yyyyyyyyyyyyyyyyyyyyyyyyyyyyyyyyyyyyyyyy",
"pppppppppppppppppppppppppppppppppppppppp",
"iiiiiiiiiiiiiiiiiiiiiiiiiiiiiiiiiiiiiiii",
"uuuuuuuuuuuuuuuuuuuuuuuuuuuuuuuuuuuuuuuu",
"wwwwwwwwwwwwwwwwwwwwwwwwwwwwwwwwwwwwwwww",
"qqqqqqqqqqqqqqqqqqqqqqqqqqqqqqqqqqqqqqqq",
"0000000000000000000000000000000000000000",
"eeeeeeeeeeeeeeeeeeeeeeeeeeeeeeeeeeeeeeee"
};
