/* XPM */
static char *cf543fee452843def079dba32fe062b2n1IeVuqkh6qqDtjP[] = {
/* columns rows colors chars-per-pixel */
"50 50 221 2 ",
"   c #181A1C",
".  c #181B1C",
"X  c #181B1D",
"o  c #191C1E",
"O  c #191C1D",
"+  c #1A1E20",
"@  c #1A1D20",
"#  c #1A1D1F",
"$  c #191C1F",
"%  c #212529",
"&  c #202529",
"*  c #202427",
"=  c #1F2226",
"-  c #1E2226",
";  c #1F2327",
":  c #202428",
">  c #1E2225",
",  c #1D2023",
"<  c #1B1E20",
"1  c #191D1F",
"2  c #1B1E21",
"3  c #1E2125",
"4  c #2A3036",
"5  c #292F35",
"6  c #272D32",
"7  c #252A2F",
"8  c #25292F",
"9  c #272C31",
"0  c #292E34",
"q  c #25292E",
"w  c #24282D",
"e  c #24292E",
"r  c #1C2023",
"t  c #1D2125",
"y  c #2A3037",
"u  c #293036",
"i  c #282E34",
"p  c #262B31",
"a  c #323A42",
"s  c #313840",
"d  c #2E353C",
"f  c #2B3138",
"g  c #2B3037",
"h  c #2D333B",
"j  c #30373F",
"k  c #2A2F36",
"l  c #292E35",
"z  c #1B1F21",
"x  c #323A43",
"c  c #323942",
"v  c #323941",
"b  c #313941",
"n  c #30363E",
"m  c #2C323A",
"M  c #353D47",
"N  c #343C45",
"B  c #2D323A",
"V  c #333B44",
"C  c #333B43",
"Z  c #2C3239",
"A  c #2B3038",
"S  c #2C3138",
"D  c #272C32",
"F  c #23282C",
"G  c #2D333A",
"H  c #363E47",
"J  c #353D46",
"K  c #2F353D",
"L  c #2C3139",
"P  c #353E47",
"I  c #2E333B",
"U  c #30363F",
"Y  c #2D3239",
"T  c #282D33",
"R  c #23272C",
"E  c #262B30",
"W  c #333A43",
"Q  c #343D46",
"!  c #2F363E",
"~  c #252A2E",
"^  c #24282C",
"/  c #282D32",
"(  c #2B3036",
")  c #303740",
"_  c #2F363D",
"`  c #343C44",
"'  c #2F353C",
"]  c #262A2F",
"[  c #292E33",
"{  c #2B2F36",
"}  c #2E343C",
"|  c #30373E",
" . c #2A2E35",
".. c #2A2F35",
"X. c #25292D",
"o. c #313841",
"O. c #2B3137",
"+. c #292F34",
"@. c #282C32",
"#. c #272B30",
"$. c #272B31",
"%. c #2C3238",
"&. c #2A3035",
"*. c #272C30",
"=. c #262B2F",
"-. c #2D353D",
";. c #2D353E",
":. c #2D343C",
">. c #2D343D",
",. c #2C333B",
"<. c #2C333C",
"1. c #343F4B",
"2. c #353F4C",
"3. c #333D48",
"4. c #323A44",
"5. c #343E4A",
"6. c #333C47",
"7. c #313942",
"8. c #30383F",
"9. c #2F3640",
"0. c #333C48",
"q. c #394553",
"w. c #394554",
"e. c #394453",
"r. c #37424F",
"t. c #353F49",
"y. c #353F4A",
"u. c #374250",
"i. c #384452",
"p. c #37414E",
"a. c #353E48",
"s. c #343B44",
"d. c #323A45",
"f. c #3A4655",
"g. c #3A4656",
"h. c #384351",
"j. c #36404B",
"k. c #384451",
"l. c #38424F",
"z. c #363F49",
"x. c #333B47",
"c. c #3A4756",
"v. c #394555",
"b. c #394655",
"n. c #384350",
"m. c #363F4A",
"M. c #363F4B",
"N. c #353E49",
"B. c #323B46",
"V. c #374351",
"C. c #384250",
"Z. c #343C46",
"A. c #313944",
"S. c #374251",
"D. c #2E343B",
"F. c #303842",
"G. c #384352",
"H. c #374350",
"J. c #36404C",
"K. c #343D47",
"L. c #2E363F",
"P. c #35404C",
"I. c #323B47",
"U. c #343D49",
"Y. c #333B46",
"T. c #31373F",
"R. c #2A3138",
"E. c #2A3038",
"W. c #2B3239",
"Q. c #2F363F",
"!. c #2F353E",
"~. c #2E353E",
"^. c #292F36",
"/. c #2F353F",
"(. c #2E343D",
"). c #313A45",
"_. c #313A44",
"`. c #333D49",
"'. c #343D4A",
"]. c #2D333C",
"[. c #313943",
"{. c #313A46",
"}. c #353E4B",
"|. c #36404E",
" X c #343D48",
".X c #394452",
"XX c #37414C",
"oX c #37404C",
"OX c #37424E",
"+X c #2E353D",
"@X c #333B45",
"#X c #37414D",
"$X c #36404D",
"%X c #35404D",
"&X c #2F3741",
"*X c #3A4757",
"=X c #2E353F",
"-X c #343E4B",
";X c #353F4B",
":X c #2D3339",
">X c #2D343B",
",X c #2E3640",
"<X c #2B323A",
"1X c #24292D",
"2X c #343F4C",
"3X c #323C47",
"4X c #343C47",
"5X c #353E4A",
"6X c #323943",
"7X c #353D48",
"8X c #303741",
"9X c #333C46",
"0X c #222529",
"qX c #23272B",
"wX c #282E33",
"eX c #303840",
"rX c #22262B",
"tX c #1C1F22",
"yX c #1D2124",
"uX c #262C31",
"iX c white",
/* pixels */
"    . X X . . . . X X X X X X X X X X X X X o o O X                                         . . X X ",
"+ + @ # # @ @ @ @ # # # # # # # # # # # # # o o $ # + + + + + + + + + + + + + + + + + + + + @ # # # ",
"% & * = - ; : : ; > > > > > > > > > > > > , < 1 2 > & % % % % % % % % % % % % % % % % % % % : ; > 3 ",
"4 5 6 7 8 9 0 0 9 q w w w w w w w w w e w % r @ t e 5 y 4 4 4 4 4 4 4 4 4 4 4 4 4 4 4 4 4 u i p e w ",
"a s d f g h j j h k 0 0 l l l l l l l k l 7 = z & 4 s x c v v v v v v v v v v v v v v c c b n m k 0 ",
"M N s h B n V C n Z g g A A A A A A S S g D % 3 F G N H J J J J J J J J J J J J J J J J J J a K L g ",
"P N s I B U V V n Y g g S S S S S S S S f T R % E d N H M J J J J J J J J J J J J J J J M J W K Z g ",
"Q V j G Z ! W x ! L g g g g g g g g g A g 0 ~ ^ / K V J N N N N N N N N N N N N N N N N Q N c d S ( ",
"J V ) G Z ! W W ! L g g g g g g g g g A g 0 E ~ 0 _ ` J Q N N N N N N N N N N N N N N N J N c ' S ( ",
"M N s h Y n V W n Z g g g g g g g g g f g l E ~ 0 ! N M J J J J J J J J J J J J J J J J J J a K L g ",
"Q V j G Z ! W a ! S g g g g g g g g g g g 0 ] q [ _ V J N N N N N N N N N N N N N N N N N N c d S { ",
"b j } g ( G | n G k 0 0  . . . . . . ... ./ ] X./ G s b o.s s s s s s s s s s s s s s s b s _ Z k 0 ",
"O.O.+.@.9 [ ( 4 [ 9 #.#.$.#.#.#.#.$.$.$.$.] X.^ ] 0 O.%.S f f f f f f f f f f f f %.%.%.%.O.&.T $.#.",
"#.#.] ~ q ] E E ] q q q q q q q q q q q q X.^ ^ X.] #.*.#.#.#.#.#.#.#.#.#.#.#.#.#.#.#.#.#.#.=.] q X.",
"D D D D D D D D D D 9 #.E #.9 D 9 E E E E E E E E E E E E E E E E E E E E E E E =.] q ~ E 9 D D D D ",
"-.-.;.;.;.;.-.;.;.;.:.Z f Z :.>.,.%.O.O.O.O.O.O.O.O.g ( g g g g g g g g g g O.O.4 [ 9 @.y <.;.;.;.;.",
"1.1.1.1.1.1.1.1.2.1.3.x o.4.3.5.6.7.8.j 8.s s s s 8.j j j j j j j j j j j j s s n G ( f 9.0.2.2.1.1.",
"q.q.q.q.q.q.q.w.w.e.r.t.Q y.u.i.p.a.N s.N N N N N N N N N N N N N N N N N N N N W ! Z h d.u.w.w.q.q.",
"f.f.f.f.f.f.f.g.g.f.h.j.a.j.k.w.l.z.J N J J J J J J J J J J J J J J J J J J J J s.j G } x.h.c.c.f.f.",
"v.v.v.v.v.v.v.b.f.w.n.m.M M.h.e.r.N.N N N N N N N N N N N N N N N N N N N N Q Q V n B } B.V.f.f.v.v.",
"w.w.w.w.w.w.w.w.v.w.C.m.M m.n.i.p.a.N N N N N N N N N N N N N N N N N N N N N N C ! L h d.u.b.b.w.w.",
"f.f.f.f.f.f.f.f.f.w.n.m.M M.h.e.r.N.N N N N N N N N N N N N N N N Z.Q Q Q Q J J V ' ( f A.S.g.g.f.f.",
"f.f.f.f.f.f.f.f.g.v.n.m.M j.h.e.r.N.N N N N N N N N N N N N N N N Z.Q Q Q Q J J C D.[ 5 F.u.g.c.f.f.",
"h.h.h.h.h.h.h.G.i.G.p.N.Z.N.p.H.J.K.V V V V V V V V V V V V V V V V C C C C V V b %.*.6 L.P.i.i.h.h.",
"B.B.B.B.B.B.B.I.3.U.6.x o.x 6.U.Y.7.s T.s s s s s s s s s s s s j ! d d d d ' ' G 0 q ] R.F.B.I.B.B.",
"R.R.R.R.R.E.R.W.:.Q.! } D.} !.Q.~.} h G h I D.} D.I I h h I I I Y ( 0 T T [ [ [ / ] ^ w 9 ^.R.R.R.R.",
"E E E E E E E / k Z B m Z m m B m Z Z Z Z Z S S S L Z Z Z Z m Z g 0 #.] ] =.E E =.] ~ ~ ] E p p E E ",
"y y y y y u y f ,.~.Q.Q.Q.Q.Q./.Q.Q.Q.Q.Q.(.m A L } Q.9.Q.Q.9.Q.~.,.R.y y y y y y y E.E.y y y y y y ",
").).).).)._.).).I.0.U.U.U.U.`.`.`.U.U.'.U._.(.L ].[.`.5.'.U.'.U.`.I.).).).).).).).).{.{.).).).).).).",
"u.u.u.u.u.u.u.u.V.h.h.h.h.h.h.h.h.h.G.i.h.}.) m ~.3.u.i.h.h.h.h.V.u.u.u.u.u.u.u.u.u.u.u.u.u.u.u.u.u.",
"h.h.h.h.h.h.h.i.q.w.b.b.b.b.b.b.b.b.b.g.v.|.F.B !. Xn..Xk.h.h.h.h.h.h.h.h.h.h.h.h.h.h.h.h.h.h.h.h.h.",
"XXXXXXXXXXoXXXOXh.w.b.b.b.b.b.b.b.b.f.g.v.|.F.G +X@Xj.#XXXJ.J.J.oXoXXXXXXXXXXXXXXXXXXXXXXXXXXXXXXXXX",
"M M M M M Q M z.OXe.w.w.w.w.w.w.w.w.w.f.w.$XF.m h b Q P M M M M M M M M M M M M M M M M M M M M M M ",
"N N N N N N N a.p.e.b.b.w.w.w.w.w.w.b.g.w.%X&Xf Z j ` Q N N N N N N N N N N N N N N N N N N N N N N ",
"N N N N N N N N.OXw.g.g.f.f.f.f.f.f.g.*Xf.%X=Xl ( | N J J N N N N N N N N N N N N N N N N N N N N N ",
"N N N N N ` N a.#Xi.w.w.w.w.w.w.w.w.w.f.w.-X<.9 0 _ V Q N N N N N N N N N N N N N N N N N N N N N N ",
"s s s s s s s x 6.;X%X%X%X%X%X%X%X%X%X|.2.).R.] 9 :Xs b o.s s s s s s s s s s s s s s s s s s s s s ",
"O.O.O.O.O.O.O.Z >X~.L.L.L.L.L.L.L.L.L.,XL.<XD 1X~ [ O.%.S f f f f f f f f f f f S %.%.%.S O.O.O.O.O.",
"#.#.#.#.#.#.#.9 D 6 T T T T T T T T T T T 9 ~ ^ X.] #.*.#.#.#.#.#.#.#.#.#.#.#.#.#.#.*.*.#.#.#.#.#.#.",
"D D D D D D D D D D D D D 9 #.E E E E E E E E E E E E E E E E E E E E E E E E E =.~ 1XX.] 9 D D D D ",
";.;.;.;.;.;.;.;.;.-.;.;.-.,.%.O.( ( ( ( ( O.O.S f O.O.O.O.O.O.O.O.O.O.O.O.O.O.O.4 9 X.q i ,.;.;.;.;.",
"1.1.1.1.1.2X2.2.1.1.2X2.-X6.x s j 8.8.8.8.s s s s s s s s s s s s s s s s s s s ! 4 =.p <.3X2.2.1.1.",
"i.i.i.i.h.h.u.u.h.G.G.h.r.M.4XW W W W W W W W W W W W W W W W W W W W W W W V V o.%.#.D L.%Xe.e.i.i.",
"l.l.l.l.OXJ.5X}.$Xr.p.2.U.Y.6Xs s s s s s s s s s s s s s s s s s s s s s s o.o.n ( #.6 ~.;Xn.n.l.l.",
"z.z.m.m.7X4.8X8X@Xa.K.[.Q.+X} I h h I I I I I I I I I I I I I I I I I I I I D.D.Y 0 ] 9 >X9Xm.m.z.z.",
"N N Q Q V n B G ) V c K L g g g g g g g g g g g g g g g g g g g g g g g g g f f k 9 w ] %.c J J N N ",
"` ` N N W K S Z n W v D.g k k g g g g g g g g g g g g g g g g g g g g g g g g g  .8 0XqX4 s N N ` ` ",
"N N N N W _ Z Z j W v } g k ( g g g g g g g g g g g g g g g g g g g g g g g g g l w = * wXs N J N N ",
"N N N N W ! Z B j W c d S g g g g g g g g g g g g g g g g g g g g g g g g g A f 0 qX, > D eXJ J N N ",
"N N N N W ! Z B j W c d S g g g g g g g g g g g g g g g g g g g g g g g g g f S 0 rXtXyXuXeXJ J N N "
};
