/* XPM */
static char *d2VhcG9u[] = {
/* columns rows colors chars-per-pixel */
"40 40 47 1 ",
"  c red",
". c #FF1400",
"X c #FF001D",
"o c #FF3000",
"O c #FF4400",
"+ c #FF5600",
"@ c #FF6E00",
"# c #FF0045",
"$ c #FF0062",
"% c #FF0079",
"& c #AF6C46",
"* c #B97A56",
"= c #2AFF33",
"- c #62FF15",
"; c #00FF48",
": c #00FF6D",
"> c #FF8000",
", c #FF9200",
"< c #FFA900",
"1 c #FFBB00",
"2 c #8CFF00",
"3 c #A9FF00",
"4 c #FACF00",
"5 c #D1FF00",
"6 c #F3EB00",
"7 c #EEFF00",
"8 c #CC9474",
"9 c #0011FF",
"0 c #2F0CFF",
"q c #7C04FF",
"w c #0040FF",
"e c #0E7EFF",
"r c #FF0097",
"t c #FF00AE",
"y c #9D00FF",
"u c #BA00E7",
"i c #E200C6",
"p c #D664D8",
"a c #00FF8F",
"s c #00FF9E",
"d c #00AEFF",
"f c #00FFC3",
"g c #00E7D5",
"h c #00C6ED",
"j c #FFAEC8",
"k c #C3C3C3",
"l c gainsboro",
/* pixels */
"eeeeeeeeeeeeeeeeeeeeeeeeeeeeeeeeeeeeeeee",
"dddddddddddddddddddddddddddddddddddddddd",
"hhhhhhhhhhhhhhhhhhhhhhhhhhhhhhhhhhhhhhhh",
"gggggggggggggggggggggggggggggggggggggggg",
"ffffffffffffffffffffffffffffffffffffffff",
"ssssssssssssssssssssssssssssssssssssssss",
"aaaaaaaaaaaaaaaaa88****aaaaaaaaaaaaaaaaa",
"::::::::::::::::88******::::::::::::::::",
";;;;;;;;;;;;;;;;******&&;;;;;;;;;;;;;;;;",
"=================****&&=================",
"-----------------lkkkkk-----------------",
"22222222222222222lkkkkk22222222222222222",
"33333333333333333ljjjjk33333333333333333",
"5555555555555555lljjpjkk5555555555555555",
"7777777777777777lljjjjkk7777777777777777",
"6666666666666666lljjjpkk6666666666666666",
"4444444444444444lljpjjkk4444444444444444",
"1111111111111111lljjjjkk1111111111111111",
"<<<<<<<<<<<<<<<<kkjjjjkk<<<<<<<<<<<<<<<<",
",,,,,,,,,,,,,,,,kkjjjjkk,,,,,,,,,,,,,,,,",
">>>>>>>>>>>>>>>>kkjjpjkk>>>>>>>>>>>>>>>>",
"@@@@@@@@@@@@@@@@kkjjjjkk@@@@@@@@@@@@@@@@",
"++++++++++++++++kkjjjjkk++++++++++++++++",
"OOOOOOOOOOOOOOOOkkpjjjkkOOOOOOOOOOOOOOOO",
"ooooooooooooooookkjjjjkkoooooooooooooooo",
"................kkjjjjkk................",
"                kkjjpjkk                ",
"XXXXXXXXXXXXXXXXXkjjjjkXXXXXXXXXXXXXXXXX",
"#################kjpjjk#################",
"$$$$$$$$$$$$$$$$$kjjjjk$$$$$$$$$$$$$$$$$",
"%%%%%%%%%%%%%%%%%%kjjk%%%%%%%%%%%%%%%%%%",
"rrrrrrrrrrrrrrrrrrkjjkrrrrrrrrrrrrrrrrrr",
"tttttttttttttttttttkkttttttttttttttttttt",
"iiiiiiiiiiiiiiiiiiiiiiiiiiiiiiiiiiiiiiii",
"uuuuuuuuuuuuuuuuuuuuuuuuuuuuuuuuuuuuuuuu",
"yyyyyyyyyyyyyyyyyyyyyyyyyyyyyyyyyyyyyyyy",
"qqqqqqqqqqqqqqqqqqqqqqqqqqqqqqqqqqqqqqqq",
"0000000000000000000000000000000000000000",
"9999999999999999999999999999999999999999",
"wwwwwwwwwwwwwwwwwwwwwwwwwwwwwwwwwwwwwwww"
};
