/* XPM */
static char *_3ef00b73d7c41c2a3e721a225009a99qUygj0TOHMzwXM4e[] = {
/* columns rows colors chars-per-pixel */
"64 64 13 1 ",
"  c None",
". c #2C2A0A",
"X c #4F1813",
"o c #641E17",
"O c #6A6521",
"+ c #81251B",
"@ c #913C1C",
"# c #EA3005",
"$ c #8A8428",
"% c #FFB300",
"& c #BCC9D9",
"* c #CEDAE8",
"= c white",
/* pixels */
"                                                                ",
"                                                                ",
"                                                                ",
"                                                                ",
"                                                                ",
"                                                                ",
"                                                                ",
"                                                                ",
"                                                                ",
"                                                                ",
"                                                                ",
"                                                                ",
"                                                                ",
"                                                                ",
"                                                                ",
"                                                                ",
"                                                                ",
"                                                                ",
"                                                                ",
"                                                                ",
"                                           ##                   ",
"                                           ##                   ",
"                                                                ",
"                                                                ",
"                                               #                ",
"                                              ##                ",
"                                             ####               ",
"                                            #####               ",
"                                             ###                ",
"                                              #                 ",
"                                               #                ",
"                                              #                 ",
"                                             ####               ",
"                                            ######              ",
"                                            #######             ",
"                                        =  ###%%###             ",
"                                        *= ##%%%##              ",
"                                        **=#%%%%%#              ",
"                                   === #*@@@@@@@%%#             ",
"                                   =***@@@@@++++@@%#            ",
"                                    *@@@@++++++=++@%#           ",
"                                    @@@@++++++===++@%#          ",
"                               ==  X@@++++++=====+=+@%          ",
"                               ==*@X+++++++&==&*=&==+%%%        ",
"                                =@@X+++++++&&=&&==&==%%%        ",
"                                *@@X++==XXXX&&XX*=&&=%%         ",
"                                @@++X==*$$$&X=&&X&XX&%          ",
"                                @@++***O$$$$&==&&=&&=%          ",
"                               X@+++oXOOO$$$===&=====%          ",
"                               X++=oooXOOOO$=*$==***%           ",
"                               X+=*oo$$..OOOOO$**$O%            ",
"                               X++ooo$$OO... OOOOO              ",
"                                Xooo$$OOOOO                     ",
"                  =             XoooOOOOOOO                     ",
"                 =*            +oXooOOOO...                     ",
"       @@    @@X@@*          ==+ooXX....$$$                     ",
"      @oo   @++X++@@  =     X=@++o=oOOO$$$$$$                   ",
"     @+o  X@++oXO+++XX*=  ==X@@++=*oOOOO$$$$$                   ",
"     +oo  X++oooXOO.$++*  =@X+++++*oOOOOO$$$$.$$$$              ",
"     +o+ @+Xoo    O.O$$++X@@X++++$OoOOOOOO$$$.$$$$              ",
"     ooo++oXo       .OO$.+++++++$OOooOOOOOOOO.O$$$$             ",
"      ooooooX        OOO.$$$$.$$OOO ooOOOOOOOOOOO$$             ",
"       ooooo           O.OOOO.OOOO   ooOOOOOOOOOOOO             ",
"                        .OOOOOOOO      OOOOOOOOOOOO             "
};
