/* XPM */
static char *_9bfe883cd6049dee86b91a05b3347d3RCUUKWag95LABGGf[] = {
/* columns rows colors chars-per-pixel */
"64 64 14 1 ",
"  c None",
". c #2C2A0A",
"X c #4F1813",
"o c #FF5555",
"O c #FF0000",
"+ c #81251B",
"@ c #913C1C",
"# c #EA3005",
"$ c #8A8428",
"% c #FFB300",
"& c #BCC9D9",
"* c #CEDAE8",
"x c #FF0000",
"= c white",
/* pixels */
"                                                                ",
"                                                                ",
"                                                                ",
"                                                                ",
"                                                                ",
"                                                                ",
"                                                                ",
"                                                                ",
"                                                                ",
"                                                                ",
"                                                                ",
"                                                                ",
"                                                                ",
"                                                                ",
"                                                                ",
"                                                                ",
"                                                                ",
"                                                                ",
"                                                 #              ",
"                                   xxxxxxx      ##              ",
"                                   xxxxxxx      ###             ",
"                                   xxxxxxx       ##             ",
"                                   xxxxxxx                      ",
"                                   xxxxxxx     ##               ",
"                                                %               ",
"                                            ####%%              ",
"                                            ===#%%              ",
"                                          ==&&===%%             ",
"                                         ==*&&&&*=              ",
"                                        @=*&+++++*              ",
"                            xxxx        @@++XXXXXX@      xxxxx  ",
"                  xxxxxxx   xxxx       @@@+X$$$$$$X      xxxxx  ",
"                  xxxxxxx   xxxx       @@+X$$$$$$$$$     xxxxx  ",
"                  xxxxxxx   xxxx       @@+X$$OOOOO$$    xxxxxx  ",
"                  xxxxxxx              @=+$$OOOOOOO$    xxxxxx  ",
"                  xxxxxxx              =*+$OOOOOOOOO    xxx     ",
"                                       **+$OOOOOOOO             ",
"                            xxxxxx      ooOOOOOOOOO             ",
"                            xxxxxx      ooOxxxOOOOO             ",
"          xxxxxxxxx         xxxxxx      oooxxxOOOOO             ",
"          xxxxxxxxx         xxxxxxxxx   XXXxxxOxxxxxxxxx        ",
"          xxxxxxxxx         xxxxxxxxx  ooo$$...xxxxxxxxx        ",
"          xxxxxxxxx               xxx  oooO$$$xxxxxxxxxx        ",
"          xxxxxxxxx                    o=oOOOOOxxxxxxxxx        ",
"                                       =*oOOOOOxxxxxxxxx        ",
"                             xxx        oooOOOOOOOxxx           ",
"                     xxxxxxxxxxx        oooOOOOOOOxxx           ",
"                     xxxxxxxxxxx         XX.OOOOO    xxx        ",
"                     xxxxxxxx            oo$.....    xxxxxxxx   ",
"                     xxxxxxxx            oo$$$$$$    xxxxxxxx   ",
"                     xxxxxxxx            o=OOO$$$$      xxxxx   ",
"    xxxxxxxxx                            =*OOOOOO$      xxxxx   ",
"    xxxxxxxxx                             oOOOOOOO      xxxxx   ",
"    xxxxxxxxx                             oOOOOOOO              ",
"    xxxxxxxxx                             oOOOOOO               ",
"    xxxxxxxxx                       =xxxxxxxx....      xxxxxxx  ",
"                                   ==xxxxxxxx$$$$$     xxxxxxx  ",
"                             ==  X@++xxxxxxxxOO$$$$    xxxxxxx  ",
"   ++                        =@XX@@++xxxxxxxxOOO$$$    xxxxxxx  ",
"   o+           *     =     X@@XX++++xxxxxxxxOOOO$$    xxxxxxx  ",
"   o++          =*    **    ++++X++++$$$$oOOOOOOOO$             ",
"   oo+++++X++++X@@@+X++$$$$.$$$$.+++$OOOOoOOOOOOOO              ",
"   ooo++++X+oooX++++X+$$OOO.OOOO..$$OOOOOoOOOOOOOO              ",
"     oooooXooooXOOOO.OOOOOO.OOOOO.OOOOOO  OOOOOOO               "
};
