/* XPM */
static char *result[] = {
/* columns rows colors chars-per-pixel */
"32 32 33 1 ",
"  c #2F1614",
". c #311715",
"X c #341816",
"o c #371A17",
"O c #391F17",
"+ c #3B2317",
"@ c #3B2118",
"# c #3C2418",
"$ c #3D2718",
"% c #3E2818",
"& c #3F2918",
"* c #3F2A18",
"= c #402B18",
"- c #402D18",
"; c #412D18",
": c #433119",
"> c #4D381C",
", c #5E352D",
"< c #4D401F",
"1 c #664839",
"2 c #78652B",
"3 c #595652",
"4 c #736244",
"5 c #7A6E58",
"6 c #990000",
"7 c #916A3B",
"8 c #85755C",
"9 c #948465",
"0 c #9A8B6E",
"q c #A1957A",
"w c #C5A260",
"e c #C3C1A2",
"r c #C7C5A7",
/* pixels */
":rq0q0999:oXX...   .oo:rq0q09999",
"<q8888885<OooXX...oooO<q88888888",
"<08888885<#666oXXo666O<088887888",
"<q8585857<*@666oo666o#<q88585885",
"<07585727<=%OOoooooO*=<058857575",
">92777222>--**#OO+$&=;>957772727",
">><><<><>:><><<<<<<<<>:><<<<><>>",
"8414eq09094,8eq0q090994,ewq00099",
"854ew9888881e00988888551w0888585",
"541q98585541q0988585454118855554",
"441098855441098858545431<1354544",
"11<988554541988885554541<<1<1111",
"81<88554543118885554543,1ewq0009",
"541<8855433<<148854443<10q098888",
"4545<131999q051443433<<180985855",
"54541<4wq0985451<<<11q0511885554",
"4441<4ew098885444<weq98854185545",
"311<19w09885454541eq988544111434",
"q09818098888545431q98854531e0988",
"88841588545445431<98854541e0q999",
"5454411555555431<<14485441098888",
"554544<<1444411081<115443<985855",
"5444339q01<<1q088551<<11<<<14445",
"44339q0999<w00855543<10q00991114",
"99wq09888810885554311w9888885433",
"w098858555415443111<e9885545441e",
"098855554543<11140910885545443<w",
"11444854543114q09885115444311<<<",
"ew11114443<4w09888885<111114q093",
"w0090511<<4e9988855551<14q098883",
"955885454<w09888555444<4w9885451",
"98555444410988855545441e9885454<"
};
